<?xml version="1.0" encoding="utf-8"?>
<svg xmlns="http://www.w3.org/2000/svg">
  <defs>
    <symbol id="authorIcon" viewBox="0 0 24 24" fill="none" stroke="currentColor" stroke-width="2" stroke-linecap="round" stroke-linejoin="round">
      <path d="m12 19 7-7 3 3-7 7z"/>
      <path d="m18 13-1.5-7.5L2 2l3.5 14.5L13 18zM2 2l7.586 7.586"/>
      <circle cx="11" cy="11" r="2"/>
    </symbol>
    <symbol id="illustratorIcon" viewBox="0 0 24 24" fill="none" stroke="currentColor" stroke-width="2" stroke-linecap="round" stroke-linejoin="round">
      <circle fill="currentColor" cx="13.5" cy="6.5" r=".5"/>
      <circle fill="currentColor" cx="17.5" cy="10.5" r=".5"/>
      <circle fill="currentColor" cx="8.5" cy="7.5" r=".5"/>
      <circle fill="currentColor" cx="6.5" cy="12.5" r=".5"/>
      <path d="M12 2C6.5 2 2 6.5 2 12s4.5 10 10 10c.926 0 1.648-.746 1.648-1.688 0-.437-.18-.835-.437-1.125-.29-.289-.438-.652-.438-1.125a1.64 1.64 0 0 1 1.668-1.668h1.996c3.051 0 5.555-2.503 5.555-5.555C21.965 6.012 17.461 2 12 2"/>
    </symbol>
    <symbol id="downloadIcon" viewBox="0 0 24 24" fill="none" stroke="currentColor" stroke-width="2" stroke-linecap="round" stroke-linejoin="round">
      <path d="M21 15v4a2 2 0 0 1-2 2H5a2 2 0 0 1-2-2v-4m4-5 5 5 5-5m-5 5V3"/>
    </symbol>
    <symbol id="pdfIcon" viewBox="0 0 24 24" fill="none" stroke="currentColor" stroke-width="2" stroke-linecap="round" stroke-linejoin="round">
      <path d="M14 2H6a2 2 0 0 0-2 2v16a2 2 0 0 0 2 2h12a2 2 0 0 0 2-2V8z"/>
      <path d="M14 2v6h6M9 15v-2h2a1 1 0 0 1 1 1v0a1 1 0 0 1-1 1z"/>
    </symbol>
    <symbol id="epubIcon" viewBox="0 0 24 24" fill="none" stroke="currentColor" stroke-width="2" stroke-linecap="round" stroke-linejoin="round">
      <path d="M4 19.5A2.5 2.5 0 0 1 6.5 17H20"/>
      <path d="M6.5 2H20v20H6.5A2.5 2.5 0 0 1 4 19.5v-15A2.5 2.5 0 0 1 6.5 2M8 7h8m-8 4h6"/>
    </symbol>
    <symbol id="closeIconModal" viewBox="0 0 24 24" fill="none" stroke="currentColor" stroke-width="2" stroke-linecap="round" stroke-linejoin="round">
      <path d="M18 6 6 18M6 6l12 12"/>
    </symbol>
    <symbol id="chevronDown" viewBox="0 0 24 24" fill="none" stroke="currentColor" stroke-width="2" stroke-linecap="round" stroke-linejoin="round">
      <path d="m6 9 6 6 6-6"/>
    </symbol>
    <symbol id="checkIcon" viewBox="0 0 24 24" fill="none" stroke="currentColor" stroke-width="2" stroke-linecap="round" stroke-linejoin="round">
      <path d="M19.707 6.293a1 1 0 0 1 0 1.414l-10 10a1 1 0 0 1-1.414 0l-4-4a1 1 0 1 1 1.414-1.414L9 15.586l9.293-9.293a1 1 0 0 1 1.414 0"/>
    </symbol>
    <symbol id="uncheckIcon" viewBox="0 0 24 24" fill="none" stroke="currentColor" stroke-width="2" stroke-linecap="round" stroke-linejoin="round">
      <path d="M12 12 7 7m5 5 5 5m-5-5 5-5m-5 5-5 5"/>
    </symbol>
    <symbol id="bookIcon" viewBox="0 0 24 24" fill="none" stroke="currentColor" stroke-width="2" stroke-linecap="round" stroke-linejoin="round">
      <path d="M4 19.5A2.5 2.5 0 0 1 6.5 17H20"/>
      <path d="M6.5 2H20v20H6.5A2.5 2.5 0 0 1 4 19.5v-15A2.5 2.5 0 0 1 6.5 2"/>
    </symbol>
    <symbol id="tagIcon" viewBox="0 0 24 24" fill="none" stroke="currentColor" stroke-width="2" stroke-linecap="round" stroke-linejoin="round">
      <path d="m20.59 13.41-7.17 7.17a2 2 0 0 1-2.83 0L2 12V2h10l8.59 8.59a2 2 0 0 1 0 2.82M7 7h.01"/>
    </symbol>
    <symbol id="tvIcon" viewBox="0 0 24 24" fill="none" stroke="currentColor" stroke-width="2" stroke-linecap="round" stroke-linejoin="round">
      <rect x="2" y="7" width="20" height="15" rx="2" ry="2"/>
      <path d="m17 2-5 5-5-5"/>
    </symbol>
    <symbol id="mangaIcon" viewBox="0 0 24 24" fill="none" stroke="currentColor" stroke-width="2" stroke-linecap="round" stroke-linejoin="round">
      <path d="M2 3h6a4 4 0 0 1 4 4v14a3 3 0 0 0-3-3H2zm20 0h-6a4 4 0 0 0-4 4v14a3 3 0 0 1 3-3h7z"/>
    </symbol>
    <symbol id="usersIcon" viewBox="0 0 24 24" fill="none" stroke="currentColor" stroke-width="2" stroke-linecap="round" stroke-linejoin="round">
      <path d="M17 21v-2a4 4 0 0 0-4-4H5a4 4 0 0 0-4 4v2"/>
      <circle cx="9" cy="7" r="4"/>
      <path d="M23 21v-2a4 4 0 0 0-3-3.87m-4-12a4 4 0 0 1 0 7.75"/>
    </symbol>
    <symbol id="hashIcon" viewBox="0 0 24 24" fill="none" stroke="currentColor" stroke-width="2" stroke-linecap="round" stroke-linejoin="round">
      <path d="M4 9h16M4 15h16M10 3 8 21m8-18-2 18"/>
    </symbol>
    <symbol id="statusIcon" viewBox="0 0 24 24" fill="none" stroke="currentColor" stroke-width="2" stroke-linecap="round" stroke-linejoin="round">
      <path d="M22 12h-4l-3 9L9 3l-3 9H2"/>
    </symbol>
    <symbol id="lockIcon" viewBox="0 0 24 24" fill="none" stroke="currentColor" stroke-width="2" stroke-linecap="round" stroke-linejoin="round">
      <rect x="3" y="11" width="18" height="11" rx="2" ry="2"/>
      <path d="M7 11V7a5 5 0 0 1 10 0v4"/>
    </symbol>
    <symbol id="eyeIcon" viewBox="0 0 24 24" fill="none" stroke="currentColor" stroke-width="2" stroke-linecap="round" stroke-linejoin="round">
      <path d="M1 12s4-8 11-8 11 8 11 8-4 8-11 8-11-8-11-8"/>
      <circle cx="12" cy="12" r="3"/>
    </symbol>
  </defs>
</svg>
