<?xml version="1.0" encoding="utf-8"?>
<svg xmlns="http://www.w3.org/2000/svg">
  <defs>
    <symbol id="searchIcon" viewBox="0 0 24 24" fill="none" stroke="currentColor" stroke-width="2" stroke-linecap="round" stroke-linejoin="round">
      <path d="m20 20-4.05-4.05m0 0a7 7 0 1 0-9.9-9.9 7 7 0 0 0 9.9 9.9"/>
    </symbol>
    <symbol id="filterIcon" viewBox="0 0 24 24" fill="currentColor">
      <path d="M18 4H6c-1.105 0-2.026.91-1.753 1.98a8.02 8.02 0 0 0 4.298 5.238c.823.394 1.455 1.168 1.455 2.08v6.084a1 1 0 0 0 1.447.894l2-1a1 1 0 0 0 .553-.894v-5.084c0-.912.632-1.686 1.454-2.08a8.02 8.02 0 0 0 4.3-5.238C20.025 4.91 19.103 4 18 4"/>
    </symbol>
    <symbol id="arrowLeft" viewBox="0 0 24 24" fill="none" stroke="currentColor" stroke-width="2" stroke-linecap="round" stroke-linejoin="round">
      <path d="m14 7-5 5 5 5"/>
    </symbol>
    <symbol id="arrowRight" viewBox="0 0 24 24" fill="none" stroke="currentColor" stroke-width="2" stroke-linecap="round" stroke-linejoin="round">
      <path d="m10 7 5 5-5 5"/>
    </symbol>
    <symbol id="noResultsIcon" viewBox="0 0 24 24" fill="currentColor">
      <path d="M4 12a8 8 0 1 1 16 0 8 8 0 0 1-16 0m8-10C6.477 2 2 6.477 2 12s4.477 10 10 10 10-4.477 10-10S17.523 2 12 2m-1.793 6.793a1 1 0 0 0-1.414 1.414L10.586 12l-1.793 1.793a1 1 0 1 0 1.414 1.414L12 13.414l1.793 1.793a1 1 0 0 0 1.414-1.414L13.414 12l1.793-1.793a1 1 0 0 0-1.414-1.414L12 10.586z"/>
    </symbol>
  </defs>
</svg>
