<?xml version="1.0" encoding="utf-8"?>
<svg xmlns="http://www.w3.org/2000/svg">
  <defs>
    <symbol id="facebookIcon" viewBox="0 0 24 24">
      <path fill="currentColor" d="M24 12.073c0-6.627-5.373-12-12-12s-12 5.373-12 12c0 5.99 4.388 10.954 10.125 11.854v-8.385H7.078v-3.47h3.047V9.43c0-3.007 1.792-4.669 4.533-4.669 1.312 0 2.686.235 2.686.235v2.953H15.83c-1.491 0-1.956.925-1.956 1.874v2.25h3.328l-.532 3.47h-2.796v8.385C19.612 23.027 24 18.062 24 12.073"/>
    </symbol>

    <symbol id="paypalIcon" viewBox="0 0 48 48">
      <circle fill="#0070ba" cx="24" cy="24" r="20"/>
      <path fill="#fff" fill-opacity=".6" d="M32.33 18.098q-.033.213-.076.437c-.984 5.051-4.35 6.796-8.648 6.796h-2.189c-.525 0-.968.382-1.05.9l-1.12 7.107-.318 2.015a.56.56 0 0 0 .553.647h3.881c.46 0 .85-.334.923-.787l.038-.198.731-4.638.047-.254a.934.934 0 0 1 .922-.79h.581c3.761 0 6.705-1.526 7.566-5.945.36-1.846.173-3.387-.778-4.471a3.7 3.7 0 0 0-1.062-.82"/>
      <path fill="#fff" fill-opacity=".8" d="M31.3 17.687a8 8 0 0 0-.956-.212 12 12 0 0 0-1.93-.141h-5.846a.93.93 0 0 0-.922.789L20.402 26l-.036.23c.082-.518.525-.9 1.05-.9h2.19c4.298 0 7.664-1.746 8.648-6.796q.044-.224.076-.437a5 5 0 0 0-.809-.342z"/>
      <path fill="#fff" d="M21.646 18.123a.93.93 0 0 1 .922-.788h5.847c.693 0 1.34.045 1.93.14q.252.042.492.094a8 8 0 0 1 .685.187q.435.145.809.342c.293-1.867-.002-3.138-1.012-4.289C30.207 12.542 28.2 12 25.63 12h-7.46c-.525 0-.973.382-1.054.901l-3.107 19.696a.64.64 0 0 0 .632.741h4.606l1.156-7.337z"/>
    </symbol>

    <symbol id="bookIcon" viewBox="0 0 24 24" fill="none" stroke="currentColor" stroke-width="2" stroke-linecap="round" stroke-linejoin="round">
      <path d="M4 19.5A2.5 2.5 0 0 1 6.5 17H20M6.5 2H20v20H6.5A2.5 2.5 0 0 1 4 19.5v-15A2.5 2.5 0 0 1 6.5 2"/>
    </symbol>

    <symbol id="documentIcon" viewBox="0 0 24 24" fill="none" stroke="currentColor" stroke-width="2" stroke-linecap="round" stroke-linejoin="round">
      <path d="M14 2H6a2 2 0 0 0-2 2v16a2 2 0 0 0 2 2h12a2 2 0 0 0 2-2V8z"/>
      <path d="M14 2v6h6m-4 5H8m8 4H8m2-8H8"/>
    </symbol>

    <symbol id="checkIcon" viewBox="0 0 24 24" fill="none" stroke="currentColor" stroke-width="2.5" stroke-linecap="round" stroke-linejoin="round">
      <path d="M20 6 9 17l-5-5"/>
    </symbol>

    <symbol id="crossIcon" viewBox="0 0 24 24" fill="none" stroke="currentColor" stroke-width="2.5" stroke-linecap="round" stroke-linejoin="round">
      <path d="M18 6 6 18M6 6l12 12"/>
    </symbol>

    <symbol id="clockIcon" viewBox="0 0 24 24" fill="none" stroke="currentColor" stroke-width="2" stroke-linecap="round" stroke-linejoin="round">
      <circle cx="12" cy="12" r="10"/>
      <path d="M12 6v6l4 2"/>
    </symbol>

    <symbol id="tagIcon" viewBox="0 0 24 24" fill="none" stroke="currentColor" stroke-width="2" stroke-linecap="round" stroke-linejoin="round">
      <path d="m20.59 13.41-7.17 7.17a2 2 0 0 1-2.83 0L2 12V2h10l8.59 8.59a2 2 0 0 1 0 2.82M7 7h.01"/>
    </symbol>

    <symbol id="infoIcon" viewBox="0 0 24 24" fill="none" stroke="currentColor" stroke-width="2" stroke-linecap="round" stroke-linejoin="round">
      <circle cx="12" cy="12" r="10"/>
      <path d="M12 16v-4m0-4h.01"/>
    </symbol>

    <symbol id="chatIcon" viewBox="0 0 24 24" fill="none" stroke="currentColor" stroke-width="2" stroke-linecap="round" stroke-linejoin="round">
      <path d="M21 15a2 2 0 0 1-2 2H7l-4 4V5a2 2 0 0 1 2-2h14a2 2 0 0 1 2 2z"/>
    </symbol>

    <symbol id="boardIcon" viewBox="0 0 24 24" fill="none" stroke="currentColor" stroke-width="2" stroke-linecap="round" stroke-linejoin="round">
      <rect x="3" y="3" width="18" height="18" rx="2"/>
      <path d="M3 9h18M9 21V9"/>
    </symbol>

    <symbol id="shieldIcon" viewBox="0 0 24 24" fill="none" stroke="currentColor" stroke-width="2" stroke-linecap="round" stroke-linejoin="round">
      <path d="M12 22s8-4 8-10V5l-8-3-8 3v7c0 6 8 10 8 10"/>
    </symbol>

    <symbol id="arrowRightIcon" viewBox="0 0 24 24" fill="none" stroke="currentColor" stroke-width="2" stroke-linecap="round" stroke-linejoin="round">
      <path d="M5 12h14m-7-7 7 7-7 7"/>
    </symbol>
  </defs>
</svg>
