<?xml version="1.0" encoding="utf-8"?>
<svg xmlns="http://www.w3.org/2000/svg">
  <defs>
    <symbol id="iconMail" viewBox="0 0 24 24" fill="currentColor">
      <path fill-rule="evenodd" clip-rule="evenodd" d="M5 20a3 3 0 0 1-3-3V7a3 3 0 0 1 3-3h14a3 3 0 0 1 3 3v10a3 3 0 0 1-3 3zM7.625 8.22a1 1 0 1 0-1.25 1.56l3.75 3.001a3 3 0 0 0 3.75 0l3.75-3a1 1 0 1 0-1.25-1.562l-3.75 3a1 1 0 0 1-1.25 0z"/>
    </symbol>
    <symbol id="iconCheck" viewBox="0 0 24 24" fill="currentColor">
      <path d="M19.707 6.293a1 1 0 0 1 0 1.414l-10 10a1 1 0 0 1-1.414 0l-4-4a1 1 0 1 1 1.414-1.414L9 15.586l9.293-9.293a1 1 0 0 1 1.414 0"/>
    </symbol>
  </defs>
</svg>