<svg xmlns="http://www.w3.org/2000/svg" viewBox="0 0 793.4 543.8"><g fill="currentColor"><path d="M395.76 17.99q1.83.32 1.83 2.22.08 1-.76 1.76a37 37 0 0 1-1.91 1.6q-9.25 5.75-18.48 11.53a1405 1405 0 0 1-18.41 11.62 32676 32676 0 0 0-47.6 30.25 33800 33800 0 0 0-93.28 58.97 754 754 0 0 0-46.53 31.63 306 306 0 0 0-15.81 12.45 85 85 0 0 0-9.55 9.4q-7.48 8.4-3.2 13.98a36 36 0 0 0 6.95 5.89q5.8 3.81 12.49 6.53a212 212 0 0 0 13.72 5 4666 4666 0 0 0 47.06 15.97l3.97 1.37q.37.16.98.3a16 16 0 0 1 2.9 1.31q1.3.75 1.92 2.28.3 1-.7 2.25a5 5 0 0 1-2.2 1.72q-4.2 1.37-6.65-.14-3.28-2.14-7.4-3.33a162 162 0 0 0-8.41-2.17 70 70 0 0 1-7.41-2.06 389 389 0 0 0-11.45-3.22 405 405 0 0 1-30.04-9.7q-12.22-4.35-22.84-10.61-2.9-1.84-4.31-1.08t-3.63 5.12a212 212 0 0 0-2.59 4.9 48 48 0 0 1-.84 1.98l-13.61 26.58q-17.61 34.54-35.28 69.06-4.2 8.25-9.1 16.5l-4.44 7.87a13 13 0 0 1-1.9 2.78 7.4 7.4 0 0 1-3.05 1.96q-3.6 1.3-5.15.1-1.58-1.18-.5-4.15l2.35-5.2a604 604 0 0 1 11.77-25.05 90600 90600 0 0 0 46.98-92.14l17.2-33.76h.15l17.26-33.93A18699 18699 0 0 1 197.6 55.66a497 497 0 0 1 12.08-22.39q2.51-4.65 7.4-5.05 5.74-.68 3.76 4.6a149 149 0 0 1-6.11 13.6l-32.7 64.16a21001 21001 0 0 1-23.7 46.91 138 138 0 0 0-4.04 8.7q-.1.25.19.4.28.14.54.3.27.15.49 0 .54 0 1.03-.35a14 14 0 0 1 1.03-.64A714 714 0 0 1 194 140.62q18.5-12 37.14-23.77 1.14-.69 2.44-1.53a22226 22226 0 0 1 111.23-69.9 5582 5582 0 0 0 24.52-15.5q7.94-4.85 15.97-9.56 5.72-3.21 10.46-2.37m0 0"/><path d="M347.52 202.86q-5.4 6.43-15.81 14.72t-20.97 10.66q-10.55 2.35-15.81-.66-5.27-3.03.76-16.15-15.36 14.97-24.48 19.17t-16.16 3.2q-7.87-1.37-8.21-6.64-.35-5.28 4.15-12.19 4.51-6.92 11.02-13.25 4.88-4.73 11.42-8.78 6.53-4.06 12.56-6.34 7.64-3.05 13.67-2.9t11 4.04q.08.16.32-.31.29-.69 1.17-1.72a7 7 0 0 1 2.03-1.64q3.12-1.67 6.25-1.67 3.14 0 3.3 3.12-1.75 4.05-6.11 10.31-9.55 13.75-10.1 19.8-.52 6.03 6.03 5.61 6.58-.42 22.97-12.61t11-5.77m-86.2 21.55q2.2 2.52 8.39-.69t13.4-9.09q7.24-5.89 13.08-11.77t7.6-8.7q-6.19-4.6-13.88-1.56-7.67 3.02-14.78 9.86t-11.08 13.28q-3.97 6.46-2.73 8.67m0 0"/><path d="M389.66 200.43q-.93 1.75-10.6 6.22t-14.3 6.71q-4.67 2.25-4.98 2.8-.08 1.52-1.15 5.11t-3.4 7.8q-2.33 4.2-6.53 7.48t-10.39 3.97q-6.11.47-9.59-1.78t-2.48-6.53 7.95-10.02a55 55 0 0 1 9.25-5.58 102 102 0 0 0 3.6-1.82 97 97 0 0 1-3.44-10q-1.45-5.13-.54-9.18 1.14-4.65 6.03-8.8 4.89-4.11 12.15-4.8 3.5-.3 6.1.35 2.61.65 4.05 2.86.24.54.11 1.2-.11.63-1.01 1.62-1.61 1.53-3.3 1.53-1.22 0-2.2-.3a49 49 0 0 1-1.77-1 16 16 0 0 0-.9-.69q-1.85-.84-3.57.24-1.72 1.06-2.86 3.28-1.83 3.89-1.03 8.33t1.88 8.17q.6 1.3.76 2.51.45.85 4.61-.26t16.31-6.14q12.16-5.05 11.24-3.28m-51.64 34.37q2.3-.15 4.15-2.44a21 21 0 0 0 3.07-5.04q1.18-2.77 1.71-4.14.16-.83-.5-1.07-.64-.23-1.48.08a25 25 0 0 0-6.27 5.05q-2.75 3.05-2.53 5.34 0 .85.46 1.46.46.6 1.39.76m0 0"/><path d="M441.37 212.72q10.62-9.32 13.03-11.84 2.4-2.51 1.64.23-.77 2.76-10.13 12.41-9.34 9.66-18.56 14.9-9.2 5.23-14.2 3.85-5-1.37-4.13-7.9t6.92-16.46q.06-.15.61-.84.98-1.69 3.08-4.97a139 139 0 0 0 4.1-6.8q1.98-3.51 2.7-5.8t-1.25-1.6q-5.2 2.2-12.35 8.67a257 257 0 0 0-13.85 13.51q-6.72 7.07-10.24 11.43a46 46 0 0 0-2.51 2.9 130 130 0 0 1-3.52 3.97q-5.13 5.74-10.01 4.44-2.68-.7-1.68-3.75a110 110 0 0 1 2.14-4.52q.69-1.37 1.14-2.51a4161 4161 0 0 0 16.58-34.14q1.14-1.99 3.13-2.75a12 12 0 0 1 4.2-.77q1.69 0 2.72.92 1.03.9-.05 3.81-.38 1-.9 1.99a3 3 0 0 1-.32 1q-.92 2.36-1.75 4.05-1.3 2.52-1.42 3.43-.1.91 1.48-.07 1.6-1 6.05-4.74 7.8-6.73 16.58-11.39 8.01-4.2 14.66-3.52 5.73.62 4.89 6.35-.61 2.9-2.14 5.84a89 89 0 0 1-3.36 5.92 421 421 0 0 1-3.66 6.27q-.75.98-1.45 1.98-6.5 10.93-6.74 14.63-.22 3.7 3.86 2.45 4.1-1.25 14.7-10.58m0 0"/><path d="M485.87 211.11q-4.84 4.9-13.56 10.86-8.7 5.96-16.76 7.57-8.07 1.6-11.27-4.99-1-2.89-.28-6.67.73-3.78 2.87-7.45.53-1 1.3-2.52a175 175 0 0 1 4.97-9.01q2.98-5.13 6.27-9.25t6.18-4.97q8.17-1.83 5.35 5.04a95 95 0 0 1-2.44 4.44 15 15 0 0 0-1.22 2.14 317 317 0 0 0-3.6 6.4 82 82 0 0 1-2.82 5.06q-5.82 11.07-1.77 13.18t13.99-4.47q9.93-6.57 14.17-10.93 4.23-4.37 3.86-1.83-.38 2.52-5.24 7.4m-5.39-42.17a8 8 0 0 1-2.93 1.08q-1.57.22-2.33-.23-.54-.69-.19-1.8.34-1.1 1.11-2.64.18-.34.45-.61a20 20 0 0 1 2.07-2.75q3.43-3.65 8.09-3.36 1.53.24 1.9 1.38.4 1.14-.9 2.67a28 28 0 0 1-7.27 6.26m0 0"/><path d="M574.42 202.86q-5.4 6.43-15.82 14.72t-20.97 10.66q-10.55 2.35-15.8-.66-5.28-3.03.76-16.15-15.37 14.97-24.49 19.17-9.13 4.2-16.15 3.2-7.88-1.37-8.22-6.64-.35-5.28 4.15-12.19 4.52-6.92 11.02-13.25 4.89-4.73 11.42-8.78 6.53-4.06 12.56-6.34 7.64-3.05 13.68-2.9t11 4.04q.07.16.3-.31.3-.69 1.18-1.72a7 7 0 0 1 2.03-1.64q3.12-1.67 6.25-1.67 3.14 0 3.3 3.12-1.75 4.05-6.11 10.31-9.55 13.75-10.1 19.8-.53 6.03 6.04 5.61t22.97-12.61q16.38-12.19 11-5.77m-86.2 21.55q2.2 2.52 8.38-.69t13.4-9.09q7.24-5.89 13.09-11.77t7.6-8.7q-6.2-4.6-13.88-1.56-7.68 3.02-14.79 9.86-7.09 6.83-11.07 13.28-3.98 6.46-2.74 8.67m-78.24-19.9q6.48 9.01 7.62 20.62 1.16 11.61-3.89 26.05-2.52 7.4-6.9 14.62a166 166 0 0 1-9.82 14.33q-8.88 11.77-19.72 22.34a279 279 0 0 1-23.06 20.13q-16.13 12.45-33.12 22.2a399 399 0 0 1-34.64 17.67q-37.29 16.82-74.33 27.36-2.52.85-5.35 1.68-3.67 1-5.43 1.76a7 7 0 0 0-2.86 2.3 34 34 0 0 0-2.7 4.73 84781 84781 0 0 1-40.65 79.44l-5.28 10.23-.22.55a336 336 0 0 1-2.95 5.61q-1.49 2.78-3.7 5.47-3.6 4.58-7.8 4.34-3.74-.14-3.13-3.81 1.61-6.03 5.05-12.45 3.13-6.04 6.19-12.08l34.6-67.9q.61-1.22 1.3-2.52a29 29 0 0 0 3.58-8.8 26 26 0 0 0-4.58.84q-3.51.85-6.1.4-1-.16-1.61-.58-.61-.43-.16-1.64 1.23-2.38 3.6-2.99a121 121 0 0 1 9.62-2.9q4.43-1.3 6.26-5.2a313 313 0 0 0 2.46-4.88q.68-1.3 1.45-2.83 10.37-20.31 20.63-40.49a43573 43573 0 0 0 46.21-90.3l.53-1.15a293 293 0 0 1 3.52-6.56q3.5-5.87 9.4-5.88 5.57.14 3.13 6.04a70 70 0 0 1-2.9 5.71q-.53 1-1 2-7.21 14.04-14.36 28.11a44596 44596 0 0 1-49.66 97.78l-1.3 2.52a31 31 0 0 0-3.36 7.95q.61.85 1.6.66a22 22 0 0 0 2-.5q28.03-8.8 55.8-20.86 27.76-12.08 54.96-28.58 35.22-21.3 61.11-52.4 13.98-17.19 19.22-31.9t3.05-26.38q-2.17-11.69-10.42-19.86-14.36-14.14-42.28-17.5t-63.3 2.18q-35.36 5.53-71.95 17.99t-68.27 29.9q-31.66 17.46-52.28 37.78-4.44 4.05-7.66 8.44-3.2 4.4-4.5 9.2-.77 2.76-2.9 4.1a6.5 6.5 0 0 1-4.58.95q-4.89-.84-4.5-5.65.45-4.2 3.73-8.65 6.26-8.7 15.05-15.95 28.34-23.68 66.69-42.1 38.35-18.41 79.64-30.18t78.34-15.2q37.06-3.44 62.5 2.98 11.14 2.83 19.81 8.14a49.5 49.5 0 0 1 14.57 13.56m-56.08 180.3q2.99-2.99 3.41-2.75.42.23-.95 2.4-1.38 2.18-3.52 4.92-3.14 4.21-8.37 9.75a136 136 0 0 1-10.5 10.05 58 58 0 0 1-15.82 9.44q-8.17 3.16-12.64 1.56t-1.03-10.02q3.43-7.03 9.1-15.42 2.19-3.47 4.5-6.87.6-1.23.3-1.88t-1.37-.5h-1.53q-4.5.7-8.48-.15-4.35-1.52-3.36-5.14 1-3.64 4.97-9.52 2.67-4.2 6.32-6.3 3.67-2.1 7.05-1.73 4.65.47 2.81 3.75-1.83 3.28-5.42 7.03-3.11 3.13-4.28 5.23-1.14 2.1 2.83 1.49l2.14-.53a30 30 0 0 1 3.6-.96q1.97-.41 4.65-.2 3.3.16 2.9 3.11-.37 2.94-2.78 7.38-2.4 4.42-5.46 9a106 106 0 0 0-5.8 9.82q-2.06 4.08-.08 4.77 2.75.84 12.3-5.69 9.54-6.53 24.51-22.05m0 0"/><path d="M413.26 379.6q1.68-1.16-.24 2.78-1.9 3.94-12.72 11t-18.37 6.69q-1.6-.16-2.97.26t-3.06 1.96a31 31 0 0 1-3.2 2.51s-.08.06-.24.16q-7.33 5.05-14.51 6.65t-11.61-1-3.2-9.86q1.45-6.57 6.34-13.06 4.18-5.73 9.68-10.76 6.88-6.74 13.94-9.52 7.08-2.8 14.33-3.1 10.78-.52 8.19 9.93-1.38 6.05-5.36 12.23a52 52 0 0 1-2.06 2.9l-1.52 2q-2 3.36 1.37 3.04 9.63-1.53 25.2-14.81m-54.84 26.05q6.72-2.53 11.91-8.57-6.11-5.72-3.66-16.5-5.44 5.05-9.45 11.77t-4.31 11.12 5.51 2.18m18.7-16.5q2.54-2.14 4.4-5.27 1.87-3.14 2.86-6.23 1-3.1.89-4.85-.11-1.76-1.64-1.08-3 1.83-4.97 5.27-1.99 3.44-2.49 6.87t.96 5.29m0 0"/><path d="M437.33 345.68q-2.99.3-3.06-1.9 0-2.3 2.67-4 2.9-1.66 5.76-1.85 2.88-.2 4.33 1.32.3.32.22.85-.16.3-.16.69a2 2 0 0 0-.45.45q-.5.57-1.06 1.08-4.05 2.83-8.25 3.36m30.25 37.57q.9.56.06 1.55a8 8 0 0 1-1.98 1.67l-7.02 4.2a1659 1659 0 0 0-23.6 14.13 664 664 0 0 0-24.07 15.44q-8.41 5.42-12.31 8.52a30 30 0 0 0-6.4 6.87q-2.53 3.78-6.57 11.34-16.58 31.25-37.97 62.19-7.27 10.45-16.5 20.31-4.97 5.58-11.4 9.94-6.18 4.2-12.29 4.34-7.95.4-8.1-5.87-.15-6.04 2.68-12.61 4.66-11.08 11.65-22t15.46-21.69q19.26-24.14 46.08-44.15 8.55-6.58 12.37-14.44a13144 13144 0 0 1 22-40.19 650 650 0 0 0 6.95-12.76 263 263 0 0 1 3.29-5.27q2.51-3.36 6.56-3.12 3.5 0 2.98 2.82-1.3 4.5-3.56 9.13a127 127 0 0 1-5.06 9.36 310 310 0 0 1-4.67 8.25q-5.88 10.23-12.14 22.53a1.2 1.2 0 0 0-.08.95q.15.5.57.69t1.33-.34l3.44-1.99a213 213 0 0 0 5.73-3.51q4.9-3.05 16.4-9.43a480 480 0 0 1 22.34-11.68q10.84-5.31 13.83-5.18M332.2 515.04q12-16.27 23.8-35.8t21.28-36.47q-8.64 5.72-18.34 16.16-9.7 10.42-18.7 22.53-9.02 12.1-15.79 22.69t-9.73 16.46q-6.2 12.61-4.4 14.36 1.8 1.77 8.1-4.04t13.78-15.9m0 0"/><path d="M534.73 384.49q2.21-1 4.07-1.53 1.88-.53 2.07.08.2.6-2.78 2.75-9.02 6.56-19.8 12.03-10.76 5.45-21.08 9.2a118 118 0 0 1-16.31 4.73q-8.2 1.76-14.81.77-6.61-1-9.82-6.34-4.73-8.25 2.91-20.18a58 58 0 0 1 15.53-16.07q9.44-6.61 19.9-8.97 8.57-1.69 15.66-.4 3.22.54 5.2 2.38 1.6 2.06.46 4.82-1.14 2.75-4.74 5.26-7.19 4.36-13.98 5.2a132 132 0 0 1-15.2 1.52q-3.52 0-5.69 1.45-2.17 1.46-4.16 4.97-6.04 9.55-1.84 15.58 2.67 3.6 9.39 3.06 6.73-.53 15.49-3.47a219 219 0 0 0 17.71-6.87q8.99-3.94 16.32-7.46 3.12-1.53 5.5-2.51m-46.14-13.61q-.08.16-.32.16-.45.3-1.18.73-.72.4-1.33.83t-.69.58q-.16.53 2.6.26 2.74-.26 6.18-.9 3.44-.66 6.11-1.77t2.61-2.64q-.16-.45-.55-.8-.37-.34-.98-.5-3.06 0-6.2 1.2a54 54 0 0 0-6.25 2.85m0 0"/><path d="M606.16 384.1q4.2-1.98 4.8-1.14.62.84-3.42 4.05a179 179 0 0 1-24.91 15.39q-13.83 7.14-25.52 10.28-7.72 2.36-15.12 2.36-5.29.15-9.7-1.53-9.49-3.66-4.97-15.58 2.5-6.56 7.56-13.14a64 64 0 0 1 12.45-11.77q7.03-5.05 14.97-7.72 7.4-2.35 13.78-1.86 6.4.49 8.69 4.24.37.69-.16 1.68t-1.37 1.99q-2.6 3.04-4.31 2.86a8 8 0 0 1-3.57-1.49 20 20 0 0 0-3.17-1.84q-1.8-.84-4.31-.38-7.03.99-14.52 7.11-6.18 5.04-10.57 11.22-4.4 6.2-4.7 11.08.15 5.05 5.84 5.74 5.7.69 14.48-1.41 8.78-2.11 18.4-5.81 9.63-3.7 17.57-7.57 7.95-3.85 11.78-6.76m0 0"/><path d="M661.3 384.63q6.27-4.04 4.66-2.02t-8.36 7.33-15.92 11.5-18.22 10.74-15.24 4.92q-7.42 0-9.67-4.4-2.25-4.38-.5-11.6 1.77-7.22 6.35-15.63a2481 2481 0 0 0 10.31-18.8 911 911 0 0 1 4.97-9.23 550 550 0 0 0 8.25-15.12q1.37-2.38 1.3-3.97-.09-1.6-2.38-1.77-2.6-.15-6.64-.15h-6.03q-3.36-.37-3.78-1.86-.43-1.5 3.39-3.03 2.6-.83 5.65-.91a76 76 0 0 1 5.9.08q1.74.14 3.12.14 4.5 0 6.23-1.4 1.72-1.43 4.08-5.62a469 469 0 0 0 4.97-8.93q1.37-2.38 2.83-4.75 1.74-3.52 5.05-6.33 3.35-2.69 6.1-2.07 2.28.7 1.22 3.36a205 205 0 0 1-4.28 8.94 58 58 0 0 1-2.6 5.03 119 119 0 0 0-2.66 5.58q-2.15 3.98-1.61 5.02.52 1.03 4.73 1.03h13.61q3.04 0 18.36-.42 15.33-.43 15.05 2.43t-20.81 3.33q-12.6.69-19.33.69-4.42-.16-8.02-.16-6.03 0-8.51 2.11-2.5 2.1-5.63 8.44a970 970 0 0 1-7.17 13.14 697 697 0 0 0-17.42 32.23q-5.43 11.3-3.49 14.68 1.95 3.36 8.9 1.26t16.54-7.5a470 470 0 0 0 19.45-11.58 46 46 0 0 1 5.35-3.57q1.07-.61 1.9-1.16m0 0"/></g><g fill="#fdaabb"><path d="M698.73 232.76c-1.77 4.7-6.43 2.36-9.2.2-6.2-4.18-12.59-8.16-18.18-13.05-9.3-8.85-11.7-22.35-11.35-34.58.82-15.52 4.33-30.83 7.74-45.9 1.11-3.91 3.1-7.5 4.74-11.2 3.57-5.52 11.21 1.43 15.09 4.53a378.07 373.54 0 0 1 24.8 22.82c6.3 6.9 13.42 13.52 16.58 22.53 2.84 7.04 5.98 14.76 3.38 22.37a411.5 406.58 0 0 1-8.44 25.45c-3.71 4.15-11.43-2.47-12.75-3.47-5.18-4.9-7.51-.61-9.78 4.34-.91 1.98-1.72 3.98-2.63 5.96m-36.98-159.3c-1.85-10.65-2.7-21.69-.82-32.39 1.36-7.67 5-15.31 11.22-20.04 6.36-6.18 15.07-12.48 22.5-16.93 5.61-2.3 5.84 10.3 8.07 14.6 1.71 3.67 8.4-.85 12.26-2 3.48-3.34 9.32-5.05 9.53 2.16 3.26 8.18 6.87 16.54 7.92 25.29 1.24 13.66-6.04 26.77-15.16 36.66a156.02 154.15 0 0 1-15.44 15.88c-6.44 6.28-13.89 11.42-20.95 16.97-3.88 3.08-9.12 1.34-10.32-3.35-4.33-11.21-6.6-23.34-8.52-35.17"/><path d="M789.7 135.13c-7.1 6.85-15.58 12.31-23.65 18.06-8.62 4.57-19.03 3.23-28.33 2-19.59-5.48-37.58-17.5-53.51-27.48-13.21-8.65 6.27-18.54 13.62-23.04 17.29-10.06 36.26-21.94 57.9-19.58 13.13.4 22.7 12.03 32.8 19.78 5.67 7.83-15.9 11.72-8.01 19.53 3.3 3.1 10.9 6.1 9.18 10.73m-155.6 58.44a34.88 34.46 0 0 1-27.51 8.76c-6.36-1.57-23.13 4.6-19.77-6.77 1.65-6.6 4.79-16.43-6.09-14.53-10.2 1.59-12.11-5.26-8.87-13.4 3.54-10.34 5.3-21.6 14.94-27.75 12.81-13.1 31.99-13.72 49-16.1 10.33-1.2 22-4.1 31.1-.42 7.21 4.14-1.6 17.34-5.3 25.02-6.86 15.97-13.61 33.32-27.5 45.19M588.08 55.32c-1.24-6.32-4.83-17.13 6.02-14.74 12.99-1.06 28.28-3.36 38.3 7 17.49 13.61 25.25 35.82 33.65 56.05 6.76 9.74.06 19.2-11.31 15.8-19.24-.61-39.23-2.37-57.3-9.79-10.66-4.42-19.8-12.99-22.34-24.47-.35-6.85-11.56-21.7.2-22.67 4.34-1.77 14.7.5 12.76-7.18"/></g><g fill="#f3b8c8"><path d="M671.77 408.34c.88-2.66 1.46-5.6 3.4-7.72 1.3-1.46 3.37-1.48 5.14-1.15.9-.1.92.33.54.96.66-.08 1.12-.46.93.7-.06 1.74-.09 3.85-1.7 4.92-2.25 1.37-4.94 1.61-7.46 2.14zm.12.4c2.67-.57 5.41-1.46 8.16-.96 1.77.28 2.98 1.79 3.56 3.39.57.83.83 1.61-.34 1.48.28.43.98.9-.01 1.1-1.58.82-3.45 1.93-5.24 1.04-2.59-1.34-4.16-4.09-6.13-6.05m-.29.3c1.86 2.1 4.11 4.06 4.98 6.81.6 1.84-.4 3.66-1.57 5.02-.37.84-.74.68-1.11 0-.22.6-.33 1.26-1.07.45-1.47-.92-3.29-2-3.4-3.94-.06-2.66 1.08-5.16 1.9-7.63zm-.4-.1c-.9 2.66-1.46 5.59-3.4 7.72-1.29 1.45-3.37 1.49-5.14 1.15-.96.05-.91-.33-.54-.96-.89.08-1.02.4-.93-.71.07-1.73.09-3.85 1.71-4.91 2.44-1.58 5.62-1.56 8.3-2.29m.17-.7c-1.82-2.04-3.97-3.96-4.91-6.6-.67-1.74.12-3.59 1.26-4.93.44-.75.85-1.37 1.35-.3.22-.6.23-1.27 1.08-.45 1.47.92 3.27 2 3.39 3.94.14 2.9-1.46 5.65-2.17 8.34m-.29.3c-2.74.57-5.57 1.53-8.38.9-1.9-.38-2.97-2.17-3.56-3.86-.54-.75-.21-.99.56-.96-.41-.5-.94-.87.15-1.16 1.53-.8 3.37-1.84 5.1-.97 2.59 1.34 4.16 4.09 6.13 6.05M711.54 376.1c.15-1.45.39-2.88.86-4.26.23-.6.89-2.2 3.69-2.62q1.71-.25 3.45-.27l-.46.73.89.07a10 10 0 0 1-.62 3.25 4 4 0 0 1-1.4 1.51c-1.14.68-3.27 1.18-6.41 1.59m-3.07 22.14a19 19 0 0 0-.94-4.24c-.67-1.66-2.09-2.25-3.72-2.56q-1.72-.22-3.46-.22l.48.73-.89.08a10 10 0 0 0 .66 3.25c.79 1.52 2.44 1.94 3.98 2.36q1.82.37 3.89.6m29.11 17.55c.14-1.45.38-2.89.86-4.27.65-1.66 2.05-2.27 3.68-2.61q1.63-.25 3.45-.28l-.45.74.89.07a10 10 0 0 1-.62 3.25c-.77 1.52-2.39 2-3.93 2.43a49 49 0 0 1-3.88.67m-74.24 39.78c.14-1.45.38-2.89.86-4.27q.53-1.38 1.77-2.02c1.67-.77 3.56-.81 5.37-.86l-.46.73.89.07a10 10 0 0 1-.62 3.26c-.79 1.54-2.38 2-3.93 2.42q-1.93.42-3.88.67m86.07-2.96a18 18 0 0 0-.94-4.25c-.66-1.66-2.1-2.24-3.72-2.55a26 26 0 0 0-3.45-.22l.47.73-.89.08a10 10 0 0 0 .67 3.25c.86 1.53 2.39 1.96 3.97 2.36q1.83.37 3.89.6m-40.78-55.5c.14-1.46.39-2.9.86-4.27.65-1.67 2.06-2.28 3.68-2.62a27 27 0 0 1 3.46-.27l-.46.73.89.07a10 10 0 0 1-.61 3.26c-.79 1.56-2.21 1.95-3.94 2.42q-1.81.41-3.88.67m41.66 54.25c.14-1.45.39-2.88.86-4.26.65-1.67 2.06-2.28 3.68-2.62a27 27 0 0 1 3.45-.27l-.46.73.89.07c-.02.4-.13 2.48-.61 3.26-.8 1.54-2.38 2-3.93 2.42a47 47 0 0 1-3.88.67m-22.17 46.3a18 18 0 0 0-.93-4.25c-.67-1.66-2.1-2.24-3.72-2.56a27 27 0 0 0-3.46-.22l.47.73-.89.08a10 10 0 0 0 .67 3.25c.83 1.53 2.41 1.97 3.97 2.36q1.82.37 3.89.6M767.6 364.2c.14-1.45.39-2.89.87-4.27.64-1.66 2.06-2.27 3.68-2.61q1.62-.24 3.45-.27l-.46.73.89.07a10 10 0 0 1-.61 3.26c-.78 1.56-2.31 1.98-3.94 2.42q-1.92.42-3.88.67m-118 130.31a18 18 0 0 0-.94-4.25c-.55-1.36-1.6-2.24-3.72-2.56a28 28 0 0 0-3.46-.21l.48.72-.9.1c.06.78.24 2.53.67 3.24.79 1.52 2.43 1.94 3.98 2.36q1.83.37 3.89.6m-17.24-37.35a18 18 0 0 0-.93-4.25c-.67-1.66-2.1-2.24-3.72-2.56a26 26 0 0 0-3.46-.21l.47.72-.89.08q.06 1.7.67 3.25c.83 1.54 2.4 1.97 3.97 2.36q1.83.37 3.9.6m139.22-33.9.46-.73q3.64-6.02 5.5-7.7 2.31-2.3 4.73-2.56a7 7 0 0 1 2.57.24c.65.12 3.77 1.05 3.9 1.6l-.73 1.01 1.44.26a28 28 0 0 1-1.87 5.23q-1.23 2.35-4.44 2.9-2.4.6-11.56-.24m.02.63.87.02q7.02.16 9.42.93 3.13.85 4.57 2.82.6.75 1.08 2.35c.22.62 1.01 3.6.54 4.15l-1.22-.1.5 1.38q-3.9.98-5.46 1-2.64.1-4.73-2.4-1.71-1.79-5.57-10.15m-.54.34.42.76q3.37 6.17 3.91 8.62.83 3.15-.16 5.39-.34.88-1.49 2.1c-.43.5-2.84 2.91-3.44 2.46l-.41-1.02-.94 1.12a28 28 0 0 1-3.59-4.23q-1.41-2.25-.29-5.3.7-2.38 5.99-9.9m-.56-.3-.45.74q-3.65 6-5.5 7.7-2.32 2.3-4.74 2.55-.93.15-2.57-.23c-.65-.12-4.02-1.12-3.86-1.68l.69-.94-1.43-.25q1.1-3.88 1.86-5.24 1.24-2.34 4.44-2.9 2.4-.6 11.56.25m.52-.97-.41-.77q-3.38-6.16-3.91-8.62-.83-3.15.16-5.38.34-.89 1.48-2.11c.43-.5 2.98-3.06 3.36-2.47l.49 1.03.94-1.12a29 29 0 0 1 3.6 4.23q1.4 2.25.28 5.3-.69 2.39-5.99 9.91m-.54.33-.87-.02q-7.01-.15-9.41-.92-3.14-.85-4.58-2.83-.58-.74-1.08-2.34c-.22-.63-.75-3.75-.65-4.21l1.34.15-.5-1.37a28 28 0 0 1 5.45-1q2.66-.1 4.73 2.4 1.71 1.79 5.57 10.14M689.65 474.22c-.4 1.2-.93 2.53-.36 3.75.72 1.48 2.23 2.3 3.62 3.04q.88.46 1.78.9c0-1.84.02-3.71-.4-5.52-.23-1.31-1.47-2.01-2.66-2.23-.4.04-1.33-.58-1.4-.07-.04.2.05.63-.23.34zm-2.41 5.92c-.7.54-1.27 1.22-1.85 1.87l.56.4c-.14.14-.7.21-.44.43.74.85 1.54 1.8 2.7 2.02 1.43.24 2.81-.45 4.01-1.17a56 56 0 0 0 2.35-1.5c-1.65-.96-3.3-1.96-5.15-2.46a2.6 2.6 0 0 0-2.18.4m9.11-5.56c-1.2.86-1.46 2.44-1.49 3.81q-.03 1.76.12 3.5c1.67-1.04 3.55-1.94 4.87-3.44.64-.75.7-1.81.4-2.71-.13-.59-.34-1.16-.53-1.73l-.62.3c-.05-.2.17-.72-.15-.6-.9.18-1.84.33-2.6.87M783.04 339.64l-.06.68-.54-.32c-.32.96-.72 1.96-.57 3 .2 1.81 2.56 3.08 2.85 3.23.52.16 1.05.35 1.5.66q.72.24 1.26.78c0-1.68.01-3.37-.3-5.03-.24-2.41-2.22-2.61-4.14-3m6.1.71c-.05.03-1.03.6-1.36 2.44q-.27 1.46 0 4.86a37 37 0 0 0 3.17-1.96q.73-.5 1.4-1.14c1.44-1.42.73-3.14.16-4.77l-.62.29.02-.63q-1.36.26-1.75.42M719.25 437.99l-.08-.57a14 14 0 0 0-.85-3.68 3.8 3.8 0 0 0-1.81-2 7 7 0 0 0-1.92-.56q-1.72-.21-3.46-.21l.48.72-.89.09q.09 1.08.13 1.28.22 1.45.54 1.96.17.36.43.67l.28.3q.3.28.71.52t.9.4q.21.13 1.65.47 1.83.38 3.89.6M121.49 89.33l-.16.55q-1.32 4.42-2.21 5.8-1.09 1.85-2.59 2.42-.66.26-1.7.27c-.59.01-2.59-.12-2.68-.38l.27-.75-.96.08q.06-2.64.32-3.63.45-1.73 2.22-2.53.48-.23 1.05-.42.25-.12 1.92-.54a85 85 0 0 1 4.52-.87m-.11-.4-.56.13q-4.48 1.07-6.13.98-2.13-.01-3.37-1.03-.56-.44-1.1-1.34-.45-.75-1.1-2.53L110 85c-.16-.26-.58-.66-.48-.8a18 18 0 0 1 3.23-1.52 3.7 3.7 0 0 1 3.3.66q.43.3.9.7.2.16 1.42 1.4a85 85 0 0 1 3 3.48m.3-.3-.4-.42q-3.17-3.35-3.91-4.82-1.05-1.86-.8-3.44a5 5 0 0 1 .62-1.62c.28-.51 1.42-2.22 1.71-2.13l.47.6.41-.86q2.26 1.37 2.99 2.09 1.26 1.25 1.07 3.19a9 9 0 0 1-.16 1.13q-.03.26-.5 1.93a80 80 0 0 1-1.5 4.35m.4.1.16-.55q1.32-4.42 2.22-5.8 1.08-1.85 2.58-2.41.66-.27 1.71-.28.87-.02 2.73.31l-.33.82.96-.08q-.06 2.65-.32 3.64a3.8 3.8 0 0 1-2.22 2.52q-.48.23-1.05.43-.24.1-1.92.53-2.25.5-4.52.87m-.17.7.4.42q3.16 3.35 3.9 4.82 1.05 1.86.8 3.44-.1.7-.62 1.63c-.28.5-1.32 2.18-1.68 2.1l-.5-.59-.4.87q-2.27-1.37-3-2.1a3.7 3.7 0 0 1-1.07-3.18q.05-.56.16-1.12.03-.27.5-1.93.65-2.08 1.5-4.36m.3-.3.55-.13q4.49-1.07 6.13-.99 2.14.03 3.37 1.04.57.43 1.1 1.34.45.75 1.1 2.53l-.88.13.55.78q-2.32 1.28-3.3 1.55-1.72.46-3.3-.67a10 10 0 0 1-.9-.7q-.2-.15-1.41-1.4a81 81 0 0 1-3.01-3.48M81.72 121.56c-.23 2.39-.53 4.88-2.63 6.3-1.67.77-3.55.8-5.36.86l.46-.74-.9-.07c.24-3.35.67-4.08 2.92-5.2.26-.14 2.23-.73 5.51-1.15m3.08-22.15c.16 1.45.43 2.88.93 4.25.85 2.1 2.9 2.77 7.18 2.78l-.47-.73.89-.08q-.05-.65-.13-1.29-.22-1.45-.54-1.96c-.48-1.18-2-1.78-2.33-1.9-.26-.14-2.17-.68-5.53-1.07M55.69 81.87a19 19 0 0 1-.86 4.27q-.54 1.38-1.77 2.02c-1.2.59-2.96.83-5.37.86l.46-.73-.89-.07A6.8 6.8 0 0 1 48.57 84c.91-.84 2.08-1.14 3.24-1.45a46 46 0 0 1 3.88-.67m74.24-39.78a18 18 0 0 1-.87 4.27c-.64 1.66-2.05 2.27-3.67 2.61a27 27 0 0 1-3.46.27l.46-.73-.9-.07a10 10 0 0 1 .62-3.26c.8-1.55 2.39-2 3.94-2.42a46 46 0 0 1 3.88-.67m-86.07 2.96c.16 1.45.43 2.88.93 4.25q.56 1.37 1.8 2c1.69.73 3.57.75 5.38.77l-.47-.73.89-.08c-.25-3.26-.81-3.82-2.1-4.73-.78-.46-1.67-.66-2.54-.88a48 48 0 0 0-3.9-.6m40.79 55.5c-.41 3.37-.78 5.33-2.64 6.3-1.67.77-3.55.8-5.36.86l.46-.73-.9-.07c.21-3.1.62-3.72 2.02-4.76q1.76-1.02 6.42-1.6M42.98 46.32a19 19 0 0 1-.86 4.26q-.54 1.39-1.77 2.03c-1.68.77-3.56.8-5.37.86l.46-.73-.89-.07c.12-1.86.26-3.73 2.02-4.76.78-.47 1.66-.69 2.53-.92a46 46 0 0 1 3.88-.67M65.15 0c.16 1.45.43 2.88.93 4.25q.56 1.38 1.8 2c1.14.55 2.9.78 5.38.78l-.48-.73.9-.08C73.62 4.65 73.31 3.2 72.3 2c-.93-.82-2.1-1.1-3.27-1.4a47 47 0 0 0-3.88-.6M25.66 133.46a18 18 0 0 1-.86 4.26q-.53 1.39-1.77 2.03c-1.67.77-3.56.81-5.36.86l.46-.73-.9-.07c.2-2.82.52-4.24 2.92-5.2.25-.13 2.17-.72 5.51-1.15M143.67 3.15l.08.57q.35 2.58.85 3.68.56 1.37 1.8 2 .92.42 1.93.55a27 27 0 0 0 3.45.22l-.47-.73.9-.08-.14-1.28a6 6 0 0 0-.54-1.97 4 4 0 0 0-.43-.67l-.28-.3a4 4 0 0 0-.7-.51 7 7 0 0 0-.92-.42q-.2-.1-1.64-.46a46 46 0 0 0-3.89-.6M160.9 40.5c.17 1.45.43 2.88.94 4.25q.55 1.38 1.8 2c1.15.55 2.92.77 5.38.77l-.48-.72.9-.08c-.16-2.07-.34-2.98-1.38-4.22-.91-.82-2.11-1.1-3.27-1.4a48 48 0 0 0-3.89-.6M21.67 74.4l-.45.74q-3.65 6.01-5.5 7.7-2.31 2.3-4.74 2.56-.93.14-2.57-.24a22 22 0 0 1-3.94-1.47l.77-1.15-1.43-.25a28 28 0 0 1 1.86-5.23q1.23-2.35 4.45-2.9 2.4-.6 11.55.24m-.01-.63-.88-.02q-7.02-.16-9.41-.93Q8.23 71.97 6.8 70q-.6-.74-1.08-2.35c-.2-.55-.42-2.5-.67-3.78-.04-.19.05-.3.16-.4l1.19.12-.5-1.37q3.9-.98 5.45-1 2.65-.1 4.74 2.4 1.7 1.79 5.57 10.15m.53-.34-.41-.76q-3.37-6.18-3.91-8.63-.83-3.14.16-5.38.34-.88 1.48-2.1a20 20 0 0 1 3.23-2.67l.63 1.23.93-1.12q2.8 2.9 3.6 4.23 1.4 2.25.28 5.3-.68 2.38-5.99 9.9m.56.3.46-.74q3.64-6 5.5-7.7 2.31-2.3 4.73-2.55.94-.15 2.57.23c.65.12 1.96.56 3.95 1.46l-.78 1.16 1.4.23q-1.08 3.9-1.82 5.25-1.23 2.35-4.45 2.9-2.4.6-11.56-.24m-.52.97.42.77q3.37 6.16 3.9 8.62.83 3.16-.15 5.38-.34.88-1.49 2.11c-.37.43-1.36 1.03-2.53 2.22-.19.18-.6.42-.85.25l-.47-1.03-.94 1.12a28 28 0 0 1-3.59-4.23q-1.41-2.25-.29-5.3.69-2.38 6-9.91m.53-.33.87.02q7.02.16 9.42.92 3.14.86 4.57 2.83.6.74 1.08 2.34.33.94.66 4.21l-1.34-.15.5 1.37q-3.9 1-5.46 1-2.64.1-4.73-2.4-1.71-1.78-5.57-10.14M103.62 23.44c.37-1.08.82-2.25.5-3.39-.6-1.75-2.35-2.64-3.88-3.46l-1.66-.84c0 1.89-.04 3.82.44 5.66.26 1 1.12 1.74 2.11 1.95.61.15 1.32.38 1.9.4.03-.2-.01-.54.08-.63zm2.4-5.92c.7-.54 1.28-1.22 1.86-1.87l-.57-.4c.15-.14.7-.21.44-.43-.76-.89-1.6-1.87-2.84-2.05-1.43-.16-2.79.55-3.98 1.27q-1.14.7-2.24 1.43c1.65.96 3.3 1.96 5.16 2.46.74.17 1.56.06 2.18-.4m-9.11 5.55c1.2-.85 1.45-2.44 1.48-3.8a31 31 0 0 0-.12-3.5c-1.7 1.06-3.63 1.97-4.95 3.54-.6.77-.58 1.82-.3 2.71q.22.82.52 1.63l.62-.3c.05.2-.17.72.15.6.9-.18 1.83-.33 2.6-.88M10.23 158.02c.04-.33-.06-.89.38-.48.39.25.35-.65.54-.9.35-.98.45-2.14-.14-3.05a6.3 6.3 0 0 0-2.47-2.15c-.58-.16-1.1-.44-1.63-.72-.41-.07-.93-.63-1.12-.64 0 1.9-.03 3.82.47 5.66a2.8 2.8 0 0 0 2.11 1.86q.92.24 1.86.42m-6.1-.71c1.04-.74 1.38-2.08 1.46-3.3.08-1.33 0-2.67-.1-4-1.56.9-3.14 1.8-4.49 3.02a2.7 2.7 0 0 0-.94 2.3c.1.88.42 1.72.7 2.55.26-.1.74-.5.6.02-.13.48.32.25.63.2a5.5 5.5 0 0 0 2.13-.8M74.02 59.67c.24 1.66.4 3.4 1.25 4.9a3.8 3.8 0 0 0 2.34 1.68c1.4.4 2.88.38 4.32.45.3 0 .04-.22-.02-.34l-.25-.4c.27-.1.95.14.86-.34-.12-1.2-.21-2.5-.96-3.51-.78-1.01-2.03-1.47-3.24-1.73a38 38 0 0 0-4.3-.7"/></g><g fill="#f24e75"><path d="M671.71 408.32c.85-2.57 1.44-5.37 3.2-7.51 1.16-1.47 3.15-1.78 4.89-1.47.64.1 1.88 0 1.18.9-.37.37.52-.04.82.05.14.98-.05 2.14-.14 3.18-.15 1.74-1.63 2.97-3.21 3.44a39 39 0 0 1-6.72 1.47zm.12.04c.58-.32 1.98-.36 2.83-.6 1.99-.47 4.2-.73 5.8-2.11 1.42-1.37 1.18-3.5 1.28-5.3.06.06-.97.3-.92 0 .37-.77.43-.8-.52-.82-1.76-.34-3.84-.31-5.1 1.16-1.9 2.12-2.5 5.04-3.37 7.67m.04.32c2.73-.57 5.56-1.51 8.37-.92 1.94.38 3.05 2.2 3.64 3.92.57.77.18 1.07-.6 1.04.11-.1.55.55.56.78-1.67.83-3.5 2.17-5.45 1.5-2.2-.9-3.66-2.93-5.21-4.63-.4-.56-1.09-1.12-1.31-1.7m.03.13c.58.34 1.3 1.53 1.94 2.15 1.4 1.5 2.73 3.27 4.72 3.97 1.9.55 3.61-.73 5.22-1.53-.03.07-.74-.7-.45-.8.86-.06.9-.04.44-.87-.6-1.68-1.65-3.47-3.55-3.84-2.78-.6-5.62.35-8.32.92m-.25.2c1.85 2.09 4.09 4.06 4.97 6.8.73 2.12-.67 4.13-2.02 5.66-.29.53-.74-.92-.7-.44-.18.94-.76.8-1.39.17-1.38-.87-2.98-1.92-3.13-3.71-.14-2.5.94-4.87 1.7-7.2.21-.38.25-1.08.57-1.28m-.09.08c-.02.67-.68 1.89-.9 2.75-.6 2.04-1.57 4.22-.99 6.37.6 1.74 2.43 2.52 3.86 3.48-.1.01.23-.99.46-.8.47.72.5.76.97-.04 1.17-1.36 2.18-3.18 1.55-5.01-.89-2.7-3.11-4.69-4.95-6.75m-.3-.12c-.84 2.57-1.44 5.37-3.2 7.5-1.23 1.6-3.4 1.78-5.23 1.44-.85.04-1.34-.24-.8-1 .2-.04-.66.12-.9.07.06-1.67-.1-3.55.9-4.99 1.39-1.68 3.72-1.97 5.7-2.46 1.17-.22 2.35-.48 3.51-.62zm-.12-.04c-.57.32-1.98.36-2.83.6-1.99.46-4.2.73-5.8 2.11-1.41 1.38-1.17 3.5-1.28 5.3-.06-.06.97-.3.92.01-.38.76-.41.8.52.81 1.76.34 3.84.3 5.1-1.16 1.91-2.12 2.5-5.04 3.37-7.67m.19-.64c-1.86-2.08-4.1-4.06-4.98-6.8-.65-1.87.37-3.73 1.57-5.11.38-.88.83-.68 1.2 0-.15-.02.2-.76.39-.87 1.56 1.03 3.62 1.95 4.02 3.98.33 2.26-.64 4.45-1.3 6.55-.31.72-.5 1.68-.9 2.25m.08-.08c.02-.67.68-1.9.9-2.75.6-2.04 1.57-4.22 1-6.37-.62-1.73-2.43-2.53-3.87-3.48.1-.02-.23 1-.46.8-.48-.86-.54-.57-1.08.18-1.19 1.4-2.1 3.31-1.36 5.13.96 2.57 3.08 4.49 4.87 6.49m-.31.4c-2.73.57-5.56 1.51-8.37.92-2.27-.46-3.33-2.8-3.95-4.8.25-.2 1.22.02.75-.24-.83-.67.02-1.01.72-1.3 1.44-.77 3.2-1.56 4.8-.71 2.3 1.29 3.88 3.5 5.6 5.46.09.21.55.45.45.67m-.03-.12c-.57-.36-1.3-1.53-1.93-2.15-1.4-1.5-2.73-3.28-4.73-3.98-1.9-.54-3.61.75-5.22 1.54.03-.08.74.7.45.8-.85.05-.9.04-.44.86.59 1.7 1.65 3.48 3.56 3.85 2.78.59 5.6-.36 8.31-.92M771.51 423.21c2.31-3.58 4.32-7.65 7.98-10.06 2.52-1.72 5.71-.93 8.25.3 1.54.16 1.08.96.37 1.7-.03-.2 1.19.02 1.44.24-.9 2.71-1.4 6.12-4.23 7.53-3.16 1.36-6.72.86-10.06.73-1.2-.18-2.73-.03-3.75-.44m.16.1c.99-.24 3 .22 4.38.2 3.12.11 6.48.55 9.39-.86 2.55-1.42 3.02-4.54 3.87-7.08.43-.35-1.2-.06-1.36-.5.64-.93 1.32-1.2-.3-1.45-2.47-1.2-5.6-2-8.07-.31-3.61 2.37-5.63 6.47-7.91 10m-.06.5c4.12.2 8.47-.05 12.32 1.68 2.66 1.11 3.91 3.97 4.14 6.69.41 1.36.43 2.6-1.19 1.98.14-.1.58 1.04.51 1.37-2.79.58-6 1.84-8.62.1-2.76-2.06-4.1-5.4-5.66-8.36-.45-1.13-1.33-2.39-1.5-3.47m0 .18c.69.75 1.31 2.71 2 3.9 1.47 2.77 2.78 5.9 5.45 7.72 2.58 1.53 5.6.3 8.29-.25-.09.1-.82-1.3-.36-1.36 1.13.14 1.5.46 1-.99-.2-2.75-1.08-5.85-3.78-7.15-3.85-1.95-8.4-1.64-12.6-1.87m-.46.2c1.9 3.67 4.27 7.32 4.7 11.52.37 2.86-1.48 5.39-3.72 6.94-.97 1.03-2.04 1.68-2.3-.04.17.06-.6 1.01-.93 1.13-2.02-2.12-5.06-4.82-4.31-8.17.91-3.77 3.4-6.9 5.5-10.08.35-.33.62-1.24 1.06-1.3m-.16.09c-.28.97-1.7 2.49-2.37 3.69-1.65 2.66-3.7 5.35-3.95 8.57-.17 3 2.93 5.2 4.22 7.08.38-.25.93-1.66 1.23-.8.27 2.02 1.43-.39 2.53-.82 2.15-1.56 3.48-4.24 2.95-6.92-.64-3.9-2.81-7.34-4.61-10.8m-.4-.3c-2.31 3.58-4.32 7.65-7.97 10.06-2.52 1.73-5.72.93-8.25-.3-1.54-.16-1.1-.96-.38-1.7.05.19-1.17-.01-1.43-.24.87-2.65 1.36-5.92 4.02-7.41 3.02-1.47 6.5-.99 9.75-.88 1.37.18 3.08.07 4.26.47m-.15-.1c-1 .24-3-.21-4.38-.2-3.12-.1-6.48-.54-9.4.86-2.52 1.24-3.53 5.6-3.78 7.24.52.12 1.8.06.95.8-1.48 1.12 1.73 1.02 2.47 1.74a7 7 0 0 0 7.44-1.32c2.85-2.51 4.69-5.94 6.7-9.11m.51-.88c-1.88-3.67-4.27-7.31-4.7-11.52-.36-2.86 1.48-5.38 3.72-6.93.98-1.03 2.04-1.68 2.31.03-.2-.05.6-1.01.92-1.12 1.9 2.12 4.6 4.27 4.4 7.43-.37 3.33-2.52 6.1-4.25 8.86-.8 1.03-1.49 2.5-2.4 3.25m.17-.08c.28-.98 1.69-2.5 2.36-3.7 1.66-2.65 3.71-5.34 3.95-8.57.03-3-2.53-5-4.35-7.06.1.01-.72 1.36-1 .99-.45-1.05-.35-1.53-1.35-.37-2.28 1.55-4.54 3.86-4.3 6.85.24 4.32 2.77 8.12 4.69 11.86m-.63.46c-4.25-.22-8.78.08-12.68-1.88-2.76-1.32-3.67-4.49-3.87-7.3-.64-1.41.28-1.42 1.28-1.17-.14.1-.58-1.04-.51-1.37 2.8-.59 6-1.85 8.63-.1 2.7 2 4.02 5.24 5.54 8.12.49 1.2 1.42 2.55 1.61 3.7m.01-.18c-.71-.74-1.31-2.7-2.01-3.9-1.48-2.76-2.77-5.89-5.44-7.71-2.58-1.53-5.6-.3-8.29.24.07-.08.82 1.32.35 1.37-1.13-.14-1.49-.46-1 .98.21 2.75 1.08 5.87 3.78 7.16 3.86 1.94 8.42 1.65 12.61 1.86M689.63 474.19c-.44 1.18-.94 2.56-.38 3.8.71 1.5 2.27 2.3 3.66 3.07.6.3 1.19.64 1.8.89.03-1.44.01-2.9-.15-4.35-.12-1.12-.44-2.4-1.51-2.99-.86-.44-1.84-.59-2.78-.78-.2.16.09.82-.41.5zm.04.1c.18.04.45.39.56.23.06-.27-.07-.8.38-.54 1.07.26 2.35.37 3.1 1.3.77 1.05.78 2.43.88 3.68q.06 1.44.06 2.88c-1.64-.84-3.41-1.58-4.7-2.95a3.1 3.1 0 0 1-.79-2.88q.2-.88.51-1.72m-2.41 5.88c.9-.69 2.11-.51 3.1-.12 1.43.58 2.78 1.38 4.13 2.14-1.5.97-2.98 2.09-4.74 2.56a3.1 3.1 0 0 1-2.97-.66c-.37-.4-1.3-1.01-1.18-1.44.17-.1.59-.24.22-.39-.5-.18-.3-.45.05-.74q.64-.74 1.39-1.35m-.05-.07a13 13 0 0 0-1.86 1.92c.11.15.46.27.49.4-.22.14-.67.15-.29.53.8.96 1.81 2.02 3.16 2a5.6 5.6 0 0 0 2.78-.82c1.09-.54 2.1-1.24 3.11-1.9-.38-.4-1.05-.63-1.54-.95-1.37-.7-2.75-1.58-4.32-1.67a2.6 2.6 0 0 0-1.53.5m9.17-5.5c.8-.54 1.76-.73 2.69-.9.05.18-.12.59.08.61.23-.05.6-.45.63-.03.3 1.02.79 2.08.53 3.17-.4 1.3-1.64 2.03-2.68 2.77q-1.28.81-2.61 1.58c-.11-1.74-.26-3.5.1-5.22.2-.77.59-1.52 1.26-1.98m-.05-.07c-1.16.82-1.46 2.34-1.5 3.68a23 23 0 0 0 .13 3.7 33 33 0 0 0 3.86-2.43c.88-.67 1.77-1.63 1.65-2.83-.1-.92-.4-1.83-.73-2.7-.19.03-.46.27-.59.23.03-.35.21-.72-.45-.5-.68.15-1.36.3-1.98.61M789.83 346.62q.05-.03 0 0m-6.8-7.02c-.09.09-.03.27-.06.4-.01.14 0 .34-.16.17-.13-.07-.25-.17-.38-.21a10 10 0 0 0-.62 2.16 3.3 3.3 0 0 0 1.12 2.86q.72.7 1.59 1.19c.18.07.46.15.14-.01-.84-.54-1.72-1.1-2.27-1.95a3.2 3.2 0 0 1-.4-2.61q.2-.78.47-1.54.26.17.52.3c.1-.1.04-.28.08-.42-.08-.42.38-.14.63-.13.75.18 1.53.31 2.21.7a3 3 0 0 1 1.2 1.88c.37 1.71.3 3.48.34 5.23.16.24.05-.45.08-.6-.03-1.64 0-3.3-.4-4.9a2.8 2.8 0 0 0-1.01-1.55c-.65-.48-1.47-.61-2.23-.8q-.42-.1-.84-.17m6.13.78c.8-.53 1.76-.73 2.7-.89l-.02.58c.1.1.25-.08.37-.1.17-.1.35-.22.35.09.25.77.52 1.55.61 2.35a2.8 2.8 0 0 1-1.03 2.28c-1.24 1.11-2.71 1.93-4.14 2.77-.34.3-.17-.38-.25-.6-.08-1.4-.15-2.83.1-4.23a3.5 3.5 0 0 1 1.3-2.25m-.04-.07c-.94.66-1.33 1.83-1.44 2.92a25 25 0 0 0 .05 4.43c.33-.05.66-.35.98-.5 1.18-.72 2.38-1.41 3.41-2.33.6-.53 1.12-1.24 1.14-2.07.04-1.05-.41-2.05-.73-3.02-.2.06-.4.18-.59.26 0-.2.03-.4 0-.6-.44.05-.87.17-1.3.27-.53.14-1.07.32-1.52.64M121.55 89.34c-.87 2.65-1.47 5.58-3.39 7.71-1.3 1.5-3.41 1.54-5.2 1.2-.96.11-1.02-.38-.6-1.04.01.14-.76.2-.96.1.11-1.88-.12-4.12 1.43-5.49 1.88-1.45 4.36-1.7 6.6-2.2.68-.06 1.54-.4 2.12-.28m-.11-.04c-.58.32-1.98.36-2.83.6-2 .47-4.2.73-5.8 2.11-1.42 1.37-1.17 3.5-1.29 5.3-.05-.07.97-.3.92 0-.37.77-.42.8.53.82 1.76.34 3.84.3 5.1-1.16 1.9-2.12 2.5-5.04 3.37-7.67m-.05-.32c-2.73.57-5.56 1.51-8.37.92-2.13-.42-3.19-2.54-3.82-4.42-.55-.54.76-.57.75-.44-.42-.52-.9-1.1.2-1.27 1.52-.8 3.31-1.8 5.03-.99 2.28 1.16 3.82 3.32 5.48 5.19.2.33.73.67.73 1.01m-.02-.12c-.58-.34-1.3-1.53-1.94-2.15-1.4-1.5-2.73-3.27-4.73-3.97-1.89-.55-3.6.74-5.22 1.53.03-.07.75.7.45.8-.85.06-.9.04-.44.87.6 1.68 1.66 3.47 3.56 3.84 2.78.6 5.61-.35 8.32-.92m.25-.2c-1.8-2.02-3.93-3.93-4.9-6.53-.7-1.73.03-3.61 1.17-4.97.41-.5.95-1.63 1.38-.58.12.53.2-.45.44-.67.93.36 1.84 1.1 2.69 1.71 1.43 1 1.76 2.9 1.37 4.5a39 39 0 0 1-2.1 6.56zm.08-.08c.03-.67.69-1.89.9-2.75.6-1.96 1.47-4 1.08-6.09-.47-1.91-2.45-2.75-3.94-3.76.08 0-.23.99-.47.8-.47-.72-.48-.76-.97.05-1.23 1.42-2.23 3.38-1.46 5.26.96 2.57 3.08 4.5 4.86 6.5m.31.11c.87-2.65 1.47-5.57 3.4-7.71 1.41-1.64 3.78-1.5 5.72-1.11.78-.1.11.62.07.95-.03-.14.75-.18.96-.1-.05 1.93.08 4.6-1.82 5.79-2.27 1.36-4.98 1.62-7.53 2.13-.22-.03-.67.24-.8.05m.11.04c.6-.32 1.98-.36 2.83-.6 2-.46 4.2-.74 5.8-2.11 1.42-1.37 1.17-3.5 1.3-5.3.04.07-.98.3-.94 0 .39-.77.43-.8-.52-.82-1.75-.33-3.83-.3-5.1 1.16-1.9 2.12-2.5 5.04-3.37 7.67m-.18.64c1.8 2.02 3.93 3.93 4.9 6.53.78 1.92-.23 3.93-1.5 5.38-.37.88-.82.69-1.19 0 .14.04-.21.74-.39.87-1.64-1.01-4.01-2.22-4.1-4.47-.04-2.65 1.1-5.13 1.92-7.6.14-.16.13-.7.36-.71m-.09.08c0 .67-.68 1.9-.9 2.75-.59 1.96-1.46 4-1.07 6.09.48 1.91 2.45 2.76 3.94 3.76-.08.02.24-.99.47-.8.47.71.48.77.97-.04 1.16-1.36 2.18-3.18 1.54-5.01-.88-2.7-3.1-4.69-4.95-6.75m.32-.4c2.73-.57 5.56-1.51 8.37-.92 1.94.38 3.04 2.2 3.64 3.92.41.61.43 1.1-.39 1-.51-.15.3.41.36.72-.77.62-1.87 1.05-2.82 1.48-1.58.73-3.38.07-4.58-1.07a39 39 0 0 1-4.62-5.1zm.03.12c.56.34 1.3 1.54 1.93 2.15 1.4 1.5 2.73 3.28 4.73 3.98 1.89.54 3.6-.74 5.22-1.54-.03.07-.74-.69-.46-.8.85-.05.9-.04.45-.86-.62-1.78-1.81-3.64-3.82-3.9-2.71-.46-5.43.42-8.05.97M21.75 74.45c-2.3 3.57-4.32 7.65-7.97 10.06-2.52 1.72-5.71.93-8.25-.3-1.54-.16-1.09-.96-.37-1.7.03.18-1.2-.01-1.44-.24.89-2.72 1.4-6.12 4.23-7.53 3.15-1.36 6.71-.86 10.05-.73 1.2.18 2.76.04 3.75.44m-.15-.1c-1 .24-3-.22-4.38-.2-3.12-.11-6.48-.55-9.4.86-2.68 1.35-3.02 5.12-4 7.2.44.17 1.26.03 1.5.39-.65.92-1.33 1.2.29 1.45 2.48 1.2 5.6 2 8.07.3 3.62-2.38 5.63-6.47 7.92-10m.05-.5c-4.12-.2-8.46.05-12.3-1.68-2.67-1.11-3.93-3.97-4.15-6.69-.4-1.36-.44-2.6 1.18-1.98-.13.13-.58-1.03-.5-1.37 2.78-.58 5.99-1.84 8.62-.1 2.76 2.06 4.1 5.4 5.66 8.36.36.97 1.5 2.72 1.5 3.47m0-.18c-.7-.76-1.31-2.71-2-3.9-1.49-2.76-2.78-5.9-5.45-7.71-2.58-1.53-5.6-.31-8.29.24.2-.06.43.96.56 1.32-.74.25-1.94-.73-1.24.62.21 2.74.85 5.9 3.46 7.36 3.62 2.05 7.96 1.83 11.98 2.04zm.46-.2c-1.94-3.78-4.47-7.57-4.72-11.94-.23-3.04 2.05-5.41 4.38-7 .91-1.26 1.37-.46 1.66.52-.18-.05.6-1.02.93-1.12 1.9 2.13 4.6 4.28 4.4 7.43-.4 3.42-2.62 6.25-4.4 9.08-.75.96-1.4 2.36-2.25 3.04m.16-.09c.29-.97 1.69-2.5 2.36-3.69 1.65-2.66 3.71-5.35 3.95-8.57.04-3-2.53-5.02-4.35-7.07.12.02-.73 1.36-1 1-.45-1.06-.35-1.53-1.35-.38-2.28 1.55-4.54 3.86-4.3 6.85.24 4.32 2.77 8.12 4.69 11.86m.4.3c2.3-3.58 4.31-7.65 7.97-10.06 2.52-1.73 5.71-.93 8.25.3 1.22.15 1.4.73.57 1.43-.73.4.72.13 1.13.39-.48 2.28-1.23 5.76-3.52 7.3-2.73 1.64-6.08 1.24-9.13 1.17-1.76-.13-3.55-.2-5.28-.45zm.15.1c1-.24 3 .21 4.37.2 3.13.1 6.49.54 9.4-.86 2.55-1.43 3.02-4.55 3.87-7.08.43-.36-1.2-.06-1.36-.52.33-.7 1.5-1.2.08-1.27-2.47-1.18-5.53-2.21-8.1-.68-3.58 2.11-5.55 5.98-7.75 9.36zm-.52.87c1.94 3.79 4.46 7.57 4.72 11.94.23 3.05-2.05 5.42-4.38 7-.91 1.26-1.38.46-1.66-.52.17.06-.6 1-.93 1.12-1.9-2.12-4.6-4.27-4.4-7.43.4-3.42 2.62-6.25 4.4-9.08.75-.96 1.4-2.35 2.25-3.03m-.16.08c-.3.99-1.69 2.5-2.37 3.7-1.65 2.65-3.7 5.35-3.95 8.57-.18 2.8 3.07 5.86 4.37 6.9.36-.38.96-1.53 1.16-.43.24 1.84 1.75-.99 2.74-1.26a7 7 0 0 0 2.59-7.11c-.75-3.73-2.8-7.04-4.54-10.37m.62-.46c4.12.2 8.47-.04 12.32 1.69 2.65 1.11 3.92 3.96 4.14 6.68.15 1.01.75 2.7-.86 2.02-.71-.43.25.7.24 1.18-2.28.65-5.57 1.85-8.08.6-2.79-1.55-4.11-4.66-5.58-7.33-.77-1.59-1.6-3.18-2.26-4.8Zm0 .18c.7.75 1.3 2.7 2 3.9 1.48 2.76 2.78 5.89 5.45 7.7 2.5 1.66 5.95.07 8.22-.12-.02-.44-.97-1.62-.07-1.45 1.88.77.39-1.44.56-2.6-.27-2.65-1.93-5.15-4.51-6.02-3.7-1.4-7.76-1.24-11.65-1.41M96.23 16.82q-.05.02 0 0m7.4 6.65c.43-1.16.93-2.5.42-3.71-.61-1.42-2.01-2.23-3.3-2.95-.72-.38-1.45-.79-2.2-1.1q-.04 1.62.06 3.25c.1 1.18.14 2.48.9 3.47.72.92 1.96 1.05 3.02 1.31.36.16.64.12.56-.3-.04-.31.11-.24.3-.09.08.03.16.13.25.12m-.05-.1c-.18-.09-.35-.24-.54-.3-.05.22-.04.45-.07.67-.94-.2-1.94-.33-2.8-.81-1.01-.6-1.28-1.86-1.4-2.95-.16-1.38-.15-2.78-.16-4.16 1.56.8 3.2 1.51 4.48 2.72a3.2 3.2 0 0 1 1.04 2.85c-.1.68-.32 1.34-.55 1.99m2.41-5.9c-.8.63-1.92.55-2.83.22-1.55-.56-2.96-1.43-4.4-2.23 1.39-.9 2.74-1.88 4.31-2.43 1.03-.37 2.28-.38 3.16.34.6.44 1.1.99 1.56 1.56-.17.1-.38.18-.53.31.15.16.37.27.55.4-.57.65-1.13 1.31-1.82 1.84m.05.07a12 12 0 0 0 1.87-1.92q-.26-.2-.53-.38c.17-.11.4-.17.52-.32-.72-.86-1.5-1.8-2.62-2.13a4.7 4.7 0 0 0-3.42.68c-1.13.52-2.15 1.27-3.2 1.95l-.02.03c1.7.84 3.32 2.1 5.23 2.5.75.19 1.55.05 2.17-.41m-9.16 5.49c-.8.53-1.76.73-2.7.9l.01-.6c-.12-.04-.24.08-.36.12-.16.08-.34.22-.34-.08a13 13 0 0 1-.61-2.26c-.11-.87.3-1.71.92-2.3 1.13-1.05 2.49-1.82 3.8-2.61.2-.09.5-.36.64-.32.12 1.6.22 3.2-.03 4.8-.16.9-.55 1.81-1.33 2.35m.05.07c.88-.62 1.29-1.7 1.42-2.74.18-1.53.08-3.08-.04-4.61-.68.23-1.25.7-1.88 1.06-1.04.66-2.12 1.3-2.95 2.23-.5.54-.78 1.28-.69 2.02.1.8.36 1.56.6 2.32.04.21.14.38.34.21l.38-.18c0 .2-.03.4 0 .6.44-.04.87-.16 1.3-.26a5 5 0 0 0 1.52-.65M10.23 158.06c.12-.26-.03-.89.4-.46.44.24.38-.67.57-.91.3-.95.45-2.04-.05-2.95a6 6 0 0 0-2.4-2.25c-.61-.2.3.27.45.4.98.63 1.93 1.5 2.15 2.69.19 1.01-.22 2-.52 2.95-.2.1-.66-.52-.6.04.12.66-.67.22-1 .2-.92-.21-1.96-.41-2.52-1.25-.7-1.02-.73-2.32-.82-3.51-.06-.99-.05-1.98-.06-2.97-.22.23-.01.85-.07 1.23.03 1.6-.01 3.26.58 4.78.3.73.96 1.27 1.72 1.49.7.25 1.44.38 2.17.52m-6.13-.78c-.8.53-1.77.72-2.7.89.01-.29.1-.83-.32-.5-.5.4-.45-.57-.65-.88-.25-.88-.57-1.87-.12-2.74.5-1.07 1.54-1.68 2.46-2.34q1.32-.85 2.68-1.63c.12 1.77.28 3.58-.13 5.32-.2.73-.59 1.44-1.22 1.88m.05.07c1.04-.74 1.4-2.07 1.47-3.29.1-1.35.02-2.71-.09-4.06-.52.15-.93.53-1.41.77-1.3.8-2.67 1.56-3.63 2.76-.5.7-.61 1.61-.37 2.43a14 14 0 0 0 .61 1.96c.27-.04.73-.5.59.04-.1.58.73.08 1.07.1a5 5 0 0 0 1.76-.71"/></g><g fill="#f6efe6"><path d="m671.74 408.1 2.09-2.08c.34-.14.24.25.05.35l-1.94 1.93c-.13.14-.34-.07-.2-.2m.22.36 2.85.77c.3.2-.13.34-.31.21l-2.62-.7c-.18-.06-.1-.33.08-.28m-.2.37.77 2.9c-.1.3-.36-.01-.35-.2l-.69-2.63c-.06-.18.24-.25.27-.07m-.41.01-2.1 2.09c-.3.15-.25-.26-.05-.35l1.94-1.94c.15-.13.33.07.21.2m-.03-.72-.76-2.86c.02-.35.36-.1.33.13l.7 2.65c.06.18-.22.26-.27.08m-.2.37-2.85-.78c-.29-.19.1-.35.28-.22l2.64.72c.18.04.11.34-.07.28"/><path d="m671.4 408.66-.06-3.57c-.01-.2.32-.17.28.02l.07 3.58c-.02.17-.28.14-.29-.03m.38-.16-3.06 1.84c-.21.1-.3-.22-.1-.28l3.03-1.82c.16-.06.27.17.13.26m-.1-.22.06 3.57c0 .2-.31.18-.28-.02l-.07-3.54c0-.2.29-.2.29 0m-.24-.03 3.12 1.72c.2.12-.04.37-.2.23l-3.06-1.7c-.17-.1-.01-.35.14-.25m-.13.19 3.05-1.84c.22-.11.3.22.1.28l-3 1.8c-.17.1-.32-.15-.15-.24m.04.19-4.42 1.06c-.3 0-.16-.32.05-.31l4.3-1.03c.18-.05.24.23.07.28m.23.08-1.29 4.37c-.19.27-.36-.1-.22-.28l1.24-4.17c.05-.18.34-.1.27.08m-.28-.34-3.13-3.3c-.12-.35.28-.21.37-.02l2.97 3.13c.13.13-.07.34-.21.2m.48.17 3.14 3.32c.12.2-.2.29-.28.11l-3.07-3.23c-.13-.13.08-.34.21-.2m-.04-.25 4.41-1.06c.2-.06.25.28.04.29l-4.39 1.05c-.17.05-.25-.24-.06-.28m-.24-.09 1.29-4.36c.06-.2.36-.07.27.11l-1.29 4.33c-.05.2-.33.1-.27-.08"/><path d="m671.63 408.69-3.11-1.73c-.23-.3.18-.3.33-.14l2.92 1.61c.18.1.04.35-.14.26m2.61-2.58c-.1.51-.9.1-.55-.28.2-.26.63-.03.55.28m.7 3.52c-.64.18-.46-.9.08-.57.21.14.16.5-.08.57m-2.7 2.37c-.42-.37.37-.83.52-.34.1.3-.28.55-.52.34m-3.4-1.16c.13-.58.97-.03.5.32-.23.2-.57-.05-.5-.33m2.01-5.88c.36.32-.27.86-.51.38-.16-.33.27-.6.51-.38m-2.71 2.36c.43-.16.62.63.1.63-.37.01-.43-.53-.1-.63m6.71-.52c-.17.57-.96-.04-.49-.35.25-.18.55.09.49.35m-.2 3.7c-.58.14-.43-.82.05-.6.27.13.23.53-.05.6m-3.3 1.69c-.44-.47.6-.8.54-.18-.03.25-.37.37-.54.18m-3.11-2.02c.17-.6 1.02.09.43.38-.24.1-.5-.14-.43-.38m3.5-5.4c.4.45-.58.83-.55.19.03-.26.37-.36.55-.19"/><path d="M668.43 406.45c.57-.15.49.93-.11.56-.22-.15-.12-.5.11-.56m8.24 1.02c-.22.81-1.46.1-.86-.5.4-.37.98.02.86.5m-1.7 4.94c-.8.23-.83-1.2 0-.99.52.13.48.88 0 1m-5.13 1c-.6-.63.64-1.3.85-.5.16.5-.5.85-.85.5m-3.42-3.95c.15-.68 1.2-.32.97.3-.19.63-1.15.3-.97-.3m6.82-5.94c.53.5-.52 1.34-.84.55-.23-.52.49-.93.84-.55m-5.13 1c.78-.22.86 1.2 0 .99-.52-.14-.47-.86 0-1M771.63 422.9l3.89-2.27c.55-.07.27.47-.05.54l-3.62 2.1c-.24.15-.47-.24-.22-.38m.2.61 3.9 2.25c.35.4-.32.46-.54.2l-3.58-2.06c-.26-.13-.02-.54.22-.39m-.44.48q.02 2.28 0 4.56c-.27.43-.5-.11-.42-.4l-.02-4.16c0-.29.45-.29.44 0m-.63-.14-3.88 2.27c-.58.01-.2-.51.11-.58l3.56-2.07c.25-.14.46.24.21.38m.24-1.09-.01-4.5c.23-.53.54.06.44.37l.01 4.13c.01.28-.44.3-.44 0m-.43.48-3.9-2.24c-.34-.46.32-.44.54-.2l3.58 2.06c.25.13.04.53-.22.38"/><path d="m770.92 423.6 1.28-5.3c.12-.35.56-.06.4.2l-1.25 5.2c-.07.27-.5.18-.43-.1m.61-.1-5.21 1.53c-.35.08-.35-.44-.04-.45l5.13-1.51c.27-.08.4.35.12.42m-.06-.35-1.27 5.29c-.1.34-.56.08-.41-.2l1.26-5.2c.08-.29.5-.16.42.11m-.33-.13 3.93 3.76c.26.28-.21.5-.37.25l-3.87-3.69c-.17-.2.1-.49.31-.32m-.28.23 5.21-1.53c.3-.1.4.39.1.43l-5.18 1.52c-.28.1-.41-.34-.13-.42m-.01.3-6.93-.15c-.4-.07-.16-.55.14-.44l6.83.15c.26.03.23.44-.04.43m.32.22-3.59 5.93c-.37.34-.49-.27-.22-.48l3.43-5.67c.14-.25.52-.02.38.22m-.29-.6-3.33-6.08c-.07-.54.47-.27.53.05l3.18 5.81c.12.23-.23.45-.38.21m.64.45 3.33 6.07c.12.36-.38.4-.45.1l-3.27-5.96c-.14-.26.26-.45.39-.21m.03-.39 6.92.15c.43.1.11.53-.19.43l-6.74-.14c-.3 0-.26-.45.01-.44m-.32-.22 3.59-5.92c.15-.28.56.04.35.26l-3.56 5.89c-.14.24-.53.02-.38-.23"/><path d="m771.26 423.72-3.94-3.75c-.2-.56.45-.32.61-.03l3.63 3.46c.2.19-.08.53-.3.32m4.83-2.8c-.42.81-1.45-.38-.59-.68.42-.16.79.33.59.69m-.33 5.46c-.92.03-.37-1.43.29-.86.33.27.14.85-.29.86m-4.9 2.44c-.47-.75.98-1.04.9-.23-.01.46-.66.62-.9.23m-4.56-3.02c.43-.82 1.48.35.6.69-.4.14-.8-.31-.6-.7m5.23-7.9c.5.74-1.05 1.1-.89.17.07-.41.67-.53.89-.17m-4.89 2.44c.72-.06.63 1.13-.07.97-.56-.08-.5-.95.07-.97m10.08 1.82c-.44.76-1.39-.41-.58-.7.4-.16.8.33.58.7m-1.72 5.4c-.9-.04-.32-1.4.32-.86.34.27.11.86-.32.85m-5.52 1.2c-.45-.88 1.2-.9.87-.05-.14.36-.69.4-.87.06m-3.81-4.19c.5-.79 1.43.45.55.71-.43.13-.73-.35-.55-.7m7.25-6.6c.4.7-.98 1.06-.9.18.04-.47.68-.56.9-.18"/><path d="M767.39 419.18c.9-.01.36 1.56-.38.78-.25-.3 0-.79.38-.78m11.75 4.7c-.64 1.12-2.18-.42-1.07-1.06.67-.42 1.47.4 1.07 1.05m-4.41 6.64c-1.63-.1-.25-2.48.65-1.2.34.5-.06 1.2-.65 1.2m-7.94-.51c-.67-1.15 1.52-1.66 1.45-.36 0 .78-1.1 1-1.45.36m-3.53-7.14c.5-.96 2.1.12 1.21.95-.64.65-1.65-.24-1.21-.95m12.35-6.13c.67 1.14-1.58 1.72-1.45.3.07-.75 1.11-.9 1.45-.3m-7.94-.5c1.2-.03.84 1.98-.29 1.5-.8-.3-.51-1.52.29-1.5M693.3 479.86c-.27.17.04.56.27.37.2-.14.03-.48-.2-.4zm2.42-.26c-.34.26.27.66.36.23.05-.19-.2-.34-.36-.23m-3.43 2.5c-.22.15 0 .5.22.4.34-.13.06-.62-.22-.4m1.55-2.6c-.3.2.13.63.32.32.14-.2-.13-.47-.32-.31m-1.57 1.93c-.23.14-.02.52.22.4.32-.13.03-.58-.22-.4m4.03-1.54c-.27.18.09.58.3.35.18-.17-.07-.53-.3-.35m-4.73.34c-.28.17-.15.64.17.66.52.08.53-.85-.03-.72zm2.83-1.93c-.49.33.23.99.52.5.22-.32-.2-.73-.52-.5m-2.58 5.34c-.22.14-.2.53.07.35.17-.1.65-.32.22-.41a.4.4 0 0 0-.29.06m5.67-3.85c-.27.13-.2.63.1.63l.45-.24c.1-.29-.28-.59-.55-.4m-3.56.15.77 1.95-2.22-.33c-.19 0-.11.24.04.22l2.15.32-.3.37q.23-.08.44-.2c.02-.05.07-.04.13-.08.08-.04.24-.19.22-.22-.06 0-.15 0-.07-.07l1.38-1.73c.03-.15-.17-.18-.22-.05l-1.36 1.7-.82-2.09-.14.2m.9 2.02c.1-.02.13.12.05.14-.09.01-.11-.07-.05-.14m-2.88-1.26 2.7 1.32-2.7 1.82c-.11.23.11.1.2.01.47-.34 1-.6 1.47-.93q.35-.24.72-.44l.41-.27c-.04.17.1.02.18-.01.09-.04.17-.13.17-.17.33-.21.62-.48.96-.67q.87-.56 1.72-1.14c.1-.24-.19-.18-.28-.06l-2.53 1.7q-.1-1.65-.23-3.29c-.17-.17-.22.11-.18.24l.21 3.04c-.97-.48-1.77-.89-2.74-1.36-.35.02-.11.12-.08.2m1.51-.48q.6.82 1.17 1.66c.12.1.24-.1.13-.18l-1.19-1.69c-.04-.05-.18.1-.1.21m-1.06 1.95c-.1.08.01.23.12.18l2.06-.19c.16-.04.05-.26-.08-.2l-2.05.2zm3.3-2.2-.8 1.78c-.07.15.18.2.2.04l.8-1.77c.03-.1-.15-.14-.2-.05m-1.04 2.25c-.06.04-.06.13-.1.2.08-.06.28-.1.23-.2-.03-.02-.1-.04-.13 0m.45-.16.16-.15c-.07 0-.1.1-.16.15M788.51 345.38c-.22.15-.01.52.23.4.19-.07.19-.37-.01-.43a.2.2 0 0 0-.22.03m-1.88-.1c-.31.21.18.66.34.27.1-.19-.17-.4-.34-.27m2.46.4c-.31.23.18.61.34.28.07-.16-.07-.37-.26-.32zm-4.52.26c-.1-.03-.45.2-.2.2l.57.16a.36.36 0 0 0-.37-.36m2.62-1.85c-.23.15-.19.52.06.63.28.16.64-.2.49-.47a.37.37 0 0 0-.55-.16m3.09 1.48c-.25.14-.2.57.07.65l.48-.25c.1-.3-.28-.59-.55-.4m-3.52-.12c-.15.02-.08.16-.05.24l.78 1.98c.05.07.19.18.25.28.1-.04.16-.14.24-.2-.03-.02-.15 0-.11-.04l1.38-1.75c.07-.14-.14-.21-.2-.08l-1.36 1.71-.82-2.08q-.04-.06-.11-.06m-.67.18c-.16.1-.11.36.06.4.16.08.32-.08.3-.24-.01-.13-.15-.23-.28-.2zm1.35-1.35c-.12.01-.1.15-.09.24l.21 3.1-.31-.15c.12.07.25.27.36.28.11-.09.11.1.07.13.03.06.08.1.13.03q.07-.07.07-.12.57-.42 1.16-.78l1.53-1.03c.04-.1 0-.22-.13-.16l-2.67 1.8-.22-3.25q-.02-.08-.11-.09m1.17 1.26q-.09.15-.16.32l-.76 1.64c-.06.13.15.2.2.08l.88-1.94c.03-.08-.09-.16-.16-.1m-.73 2.16c-.06.02-.04.18.01.13s.18-.14.17-.16q-.1 0-.18.03m-3.3-1.53c-.09 0 .24.09.14.05q-.07-.04-.14-.05m1.61-.28 1.2 1.7c.2.18.23-.02.19-.1l-1.22-1.72M121.32 89.42l-2.22 2.2zm0-.47-3.01-.82zm.41-.23-.8-3.02zm.4.24 2.22-2.21zm-.4.7.8 3.02zm.4-.23 3.01.81zm-.6.13-2.1 2.08c-.35.14-.21-.28-.02-.38l1.92-1.9c.12-.15.35.08.2.2m-.22-.36-2.85-.77c-.27-.27.15-.31.33-.2l2.6.7c.17.04.1.33-.08.27m.2-.37-.77-2.86c.07-.37.35-.04.35.17l.69 2.62c.05.17-.22.26-.28.07m.42-.02 2.1-2.08c.32-.14.25.24.06.34l-1.96 1.95c-.13.13-.33-.08-.2-.2m.03.72.76 2.9c-.1.31-.35 0-.35-.2l-.69-2.62c-.05-.18.24-.26.28-.08m.2-.37 2.85.78c.29.2-.14.34-.32.2l-2.6-.7c-.2-.04-.11-.33.07-.28"/><path d="m121.87 89 .06 3.57c0 .22-.34.14-.29-.06l-.06-3.51c-.01-.19.28-.19.29 0m-.38.16 3.06-1.84c.22-.1.29.23.09.28l-3 1.81c-.16.1-.31-.15-.15-.25m.1.22-.07-3.57c0-.23.34-.15.3.06l.06 3.5c0 .19-.29.2-.3 0m.24.03-3.12-1.72c-.2-.13.05-.37.2-.23l3.06 1.7c.16.09.04.35-.14.25m.14-.19-3.05 1.85c-.25.1-.27-.25-.08-.3l2.98-1.8c.17-.1.3.16.15.25m-.04-.19 4.42-1.05c.27-.03.2.31-.02.3L122 89.3c-.18.05-.25-.25-.07-.29m-.24-.08 1.3-4.37c.2-.27.34.09.22.26l-1.24 4.19c-.05.18-.33.1-.28-.08m.28.33 3.13 3.3c.15.3-.27.25-.36.05l-2.97-3.15c-.14-.13.08-.33.2-.2m-.47-.17-3.13-3.3c-.15-.24.2-.3.28-.12l3.06 3.22c.13.14-.09.34-.21.2m.04.25-4.42 1.06c-.28.01-.16-.32.05-.3l4.3-1.04c.2-.05.25.24.07.28m.24.09-1.3 4.36c-.11.24-.35 0-.24-.17l1.26-4.27c.06-.18.33-.1.28.08"/><path d="m121.63 88.97 3.12 1.73c.24.28-.23.3-.38.12l-2.88-1.6c-.17-.08-.02-.34.14-.25m-2.6 2.59c.07-.5.92-.17.55.27l-.29.1a.32.32 0 0 1-.27-.38m-.69-3.52c.53-.17.54.74.03.62-.32-.06-.33-.53-.03-.62m2.7-2.37c.38.32-.33.88-.52.34-.12-.3.3-.55.52-.34m3.4 1.16c-.1.52-.91.12-.56-.28.2-.25.63-.02.56.28m-2.01 5.9c-.43-.43.47-.84.54-.29.04.3-.33.47-.54.28m2.7-2.36c-.51.17-.54-.74-.03-.62.32.05.34.53.03.62m-6.7.52c.18-.6 1 .1.43.38-.24.11-.5-.14-.43-.38m.2-3.7c.6-.14.4.9-.11.56-.22-.15-.14-.5.1-.57m3.31-1.68c.35.33-.38.84-.53.3-.1-.3.32-.53.53-.3m3.11 2.02c-.13.52-.95.05-.52-.34.25-.22.6.06.52.34m-3.5 5.4c-.47-.6.8-.73.5-.07-.09.18-.36.21-.5.07"/><path d="M124.84 91.21c-.61.14-.41-.92.1-.56.23.16.14.5-.1.56m-8.24-1.02c.25-.88 1.5.02.8.54-.38.3-.93-.1-.8-.54m1.7-4.95c.87-.22.77 1.31-.07.97-.45-.18-.38-.85.06-.97m5.13-1c.53.5-.5 1.34-.83.56-.24-.51.47-.94.83-.56m3.43 3.95c-.24.87-1.52 0-.8-.54.37-.32.94.1.8.54m-6.82 5.94c-.53-.49.45-1.3.8-.6.3.52-.42 1-.8.6m5.12-1c-.8.23-.82-1.25.03-.98.5.13.44.87-.03.98M21.38 74.47l-2.06 1.2-2.06 1.2zm.18-.69L19.5 72.6l-2.06-1.19zm.7-.18-.02-4.76zm.5.51 2.06-1.2 2.05-1.2zm-.88.87v2.39l.01 2.38zm.7-.18 2.05 1.2 2.06 1.18z"/><path d="m21.64 74.77-3.9 2.26c-.71-.1.15-.64.47-.78l3.2-1.86c.25-.16.47.25.23.37m-.2-.6-3.9-2.25c-.24-.68.64-.17.93.03 1.08.64 2.2 1.24 3.26 1.9.13.17-.1.45-.29.32m.43-.48v-4.5c.64-.58.39 1 .43 1.4 0 1.06.03 2.13 0 3.2-.1.2-.45.13-.43-.1m.63.14 3.89-2.26c.74.08-.1.62-.43.75-1.1.64-2.2 1.31-3.33 1.92-.21.02-.34-.31-.13-.41m-.24 1.09.02 4.5c-.66.59-.4-1-.45-1.4.01-1.07-.03-2.14.01-3.2.09-.2.44-.13.42.1m.43-.48 3.9 2.24c.29.65-.61.2-.89 0-1.1-.65-2.22-1.25-3.3-1.92-.12-.17.1-.45.3-.32"/><path d="m22.35 74.06-1.29 5.3c-.08.3-.55.05-.4-.2l1.27-5.23c.07-.25.5-.12.42.13m-.62.1 5.21-1.53c.37-.07.34.44.04.45l-5.12 1.51c-.27.08-.4-.35-.13-.42m.06.35 1.28-5.29c.12-.35.55-.06.4.2l-1.25 5.2c-.07.28-.5.17-.43-.11m.34.13-3.94-3.76c-.24-.25.2-.52.36-.26l3.88 3.7c.2.19-.08.52-.3.32m.27-.23-5.2 1.53c-.37.08-.34-.44-.04-.45l5.12-1.5c.27-.1.4.34.12.42m.02-.3 6.92.15c.38.05.16.54-.14.44l-6.8-.14c-.28 0-.27-.45.02-.44m-.32-.22 3.59-5.93c.44-.33.47.27.22.48l-3.44 5.67c-.14.22-.5 0-.37-.22m.28.6 3.34 6.08c.11.5-.5.26-.54-.08L22 74.73c-.15-.25.26-.47.38-.21m-.63-.45L18.42 68c-.1-.42.41-.34.47-.04l3.24 5.9c.12.24-.24.44-.38.21m-.03.39-6.93-.15c-.42-.1-.1-.53.2-.44l6.73.15c.28 0 .3.45 0 .44m.31.22-3.58 5.92c-.27.32-.53-.14-.3-.35l3.5-5.8c.16-.25.53 0 .38.23"/><path d="m22.01 73.94 3.93 3.75c.18.6-.46.28-.62.01l-3.61-3.44c-.21-.2.1-.52.3-.32m-4.84 2.8c.44-.83 1.46.37.6.68-.4.16-.8-.32-.6-.69m.34-5.46c.75-.08.6 1.21-.13.95-.5-.15-.38-.94.13-.95m4.9-2.44c.48.75-1.06 1.09-.9.17.07-.43.68-.53.9-.17m4.55 3.02c-.42.82-1.45-.4-.6-.69.42-.15.8.33.6.7m-5.23 7.9c-.48-.78.97-1.03.9-.24-.01.45-.66.63-.9.24m4.9-2.44c-.98.02-.3-1.56.35-.8.26.3.03.79-.35.8M16.55 75.5c.51-.82 1.4.56.49.72-.4.08-.69-.4-.5-.72m1.72-5.4c.78-.01.5 1.32-.23.92-.45-.24-.23-.91.23-.91m5.53-1.21c.42.7-1 1.07-.9.18.05-.46.68-.56.9-.18m3.8 4.19c-.5.8-1.43-.53-.49-.73.4-.06.69.4.5.73m-7.25 6.6c-.4-.69.9-1.07.9-.25.03.48-.67.66-.9.24"/><path d="M25.87 78.48c-1-.07-.16-1.48.39-.79.25.3 0 .8-.39.79m-11.74-4.7c.68-1.19 2.3.58.94 1.12-.68.29-1.3-.54-.94-1.12m4.4-6.63c1.18-.05.92 1.95-.25 1.52-.85-.3-.55-1.52.26-1.52m7.94.51c.54.83-.98 1.76-1.4.7-.4-.94.95-1.49 1.4-.7M30 74.8c-.63 1.13-2.23-.45-1.04-1.08.68-.4 1.42.45 1.04 1.08m-12.35 6.13c-.67-1.13 1.45-1.7 1.45-.4.04.79-1.1 1.05-1.45.4m7.94.5c-1.12.05-.97-1.94.2-1.55.86.26.67 1.56-.2 1.55M99.76 17.39c-.3-.46-.8-1.11-1.1-1.57-.26-.01-.14.34 0 .4.38.47.61.88.98 1.35m1.22-2.06c.02-.17-.19-.21-.31-.19-.61.12-1.24.12-1.85.2-.11.17.15.26.28.21m-1.53 2.17c.31-.6.56-1.22.85-1.82.22-.16-.24-.36-.21-.09-.22.61-.54 1.18-.79 1.77-.06.09.07.2.15.14"/><path d="M100.71 16.69q-1.04-.54-2.1-1.05l2.7-1.81c-.55.06-4.55 2.76-5.82 3.62.24.18.5-.06.67-.22l2.13-1.42.22 3.25c.35-.16.16-.59.15-.87-.06-.6-.05-1.22-.13-1.82-.13-.22.05-.66.32-.39.52.3 1.07.52 1.59.8.28.12.55.3.86.32-.05-.2-.4-.3-.59-.41"/><path d="M99.24 17.81c-.21-.72-.4-1.33-.67-2.04l2.1.3c.22-.04.16-.29.01-.2l-2.08-.3c.08-.13.2-.23.27-.37-.21.1-1.05.51-.69.5q-.61.86-1.29 1.7c-.07.17.15.25.16.1l1.32-1.66.8 2.01"/><path d="M99.97 17.8c.31-.22-.16-.62-.33-.3-.13.2.14.45.33.3m-2.42.25c.36-.28-.35-.64-.37-.19 0 .18.22.3.36.2m3.43-2.5c.22-.14 0-.5-.22-.4-.33.14-.05.62.23.4m-1.55 2.6c.37-.3-.36-.64-.36-.18 0 .17.22.28.36.17m1.57-1.93c.33-.23-.27-.68-.36-.22a.23.23 0 0 0 .36.22m-4.03 1.54c.3-.22-.17-.6-.34-.3-.1.2.14.44.34.3m4.56-1c-.54-.08-.53.84.02.72.35-.02.42-.68-.02-.72m-2.67 2.59c.28-.18.16-.65-.16-.67-.68-.03-.43 1 .16.67m2.6-5.34a.4.4 0 0 0 .12-.4c-.23.07-.5.07-.64.33.13.16.35.18.51.07m-5.67 3.85c.24-.14.21-.54-.06-.64l-.45.22c-.24.23.26.64.51.42M7 151.93c.17-.24-.17-.45-.28-.66l-.88-1.24c-.28.1 0 .42.13.54.31.47.69.91 1.02 1.36m-2.33.2c.32-.65.6-1.32.92-1.97-.24-.24-.38.22-.41.4q-.35.73-.68 1.47c.1.07.17-.37.17.1"/><path d="m5.9 152.76-.2-2.71c.18-.08-.53-.06-.76.13-.63.43-1.28.82-1.9 1.26-.12.06-.53.32-.22.38.23-.07.39-.27.6-.38l2.08-1.4.22 3.27c.31.2.13-.4.17-.54"/><path d="M6.5 152.22c.18-.05.04-.26 0-.36l-.72-1.87c-.07-.1-.26-.03-.38-.04q-.68.89-1.38 1.75c-.09.17.22.2.23.03l1.33-1.67.83 2.1c.01.05.1.05.1.05m.67-.18c.18-.1.09-.43-.12-.42-.21-.04-.33.3-.15.41.07.06.19.06.27 0"/><path d="M4.75 152.28c.2-.13.06-.5-.19-.41-.27.05-.2.52.1.44m1.97.07c.26-.16-.02-.57-.26-.37-.23.16.02.55.26.37m-2.46-.4c.22-.13.04-.47-.18-.4-.22.04-.23.37-.02.43.12.05.2-.03.2-.03m4.82-.43q-.33-.07-.67-.2c0 .36.5.5.67.2m-2.92 2.02c.27-.17.17-.62-.14-.66-.48-.11-.6.67-.13.72h.14zM3 152.09c.24-.15.22-.56-.07-.65l-.49.25c-.08.31.28.58.56.4"/></g><g fill="#f18ba4"><path d="M671.6 409.27a.8.8 0 0 1-.78-1.06.8.8 0 0 1 .64-.52.8.8 0 0 1 .87.57c.12.25-.1 1-.74 1M771.03 424.57c-.55-.1-1-.6-1-1.15a1.2 1.2 0 0 1 .79-1.17c.97-.37 1.92.65 1.52 1.58-.08.26-.56.88-1.32.74M694.55 481.56a.57.57 0 0 0-.07.86l.5-.25c.14-.13.21-.2.42-.37a.6.6 0 0 0-.62-.34c-.13.03-.23.1-.23.1M787.23 347.45q.28.22.52.5c.1-.09.13-.13.44-.37-.2-.36-.64-.4-.96-.14M120.95 88.95c.13-.47.76-.72 1.17-.44.37.22.5.76.24 1.11-.22.34-.72.48-1.06.24-.3-.18-.47-.57-.35-.9M21.01 73.65c.43-.8 1.81-.74 2.13.13.32.7-.15 1.65-.94 1.7-1.02.15-1.73-1.04-1.19-1.83M98.71 16.1c.4-.26.2-.84.06-.85-.34.09-.97.58-.91.64.16.3.58.4.85.21M5.59 150.43a.6.6 0 0 0 .45-.21 4 4 0 0 1-.52-.51q-.2.2-.44.37a.6.6 0 0 0 .5.35"/></g><path fill="#fd7e97" d="M667.7 115.64c.33-.98.88-1.64.82-2.47-.68-7.69-4.87-14.21-7.7-21.27-4.87-10.54-9.63-21.2-16.2-30.87-5.49-7.62-12.15-15-20.9-19-6.65-3.04-14.1-2.2-21.2-2.12-3.85.26-12.5 1.47-12.63.22.13-4.9 8.75-2.98 12.55-3.12 9.43-.34 19.94-1.8 28.2 3.57-.3.08-5.3-4.95-.69-1.71 13.93 8.15 22.08 22.7 28.9 36.7 2.68 5.57 5.36 11.17 6.7 17.25 1.86 6.93 2.95 14.21 6.65 20.51-.73 1.43-3.04 1.73-4.5 2.3m12.17 7.47c8.67 9.32 21.75 12.99 30.26 22.61 13.41 12.48 27.13 27.96 26.7 47.3-2.04 10.4-6.95 19.89-10.94 29.78-.45.65-1.24 1.18-1.24 1.06 0-.05.1-.27.15-.51.27-1.78 3.18-8.83 4.3-12.42 3.09-9.2 5.4-19.5 1.56-28.36-4.9-14.22-16.26-24.53-26.1-34.6-9.46-7.26-17.63-18.1-29.1-21.86.43-1.82 2.74-2.76 4.41-3m18.06-23.02C712.27 86.2 729.65 72 732.31 51c1.34-12.32-5.2-23.6-8.87-34.99-5.7-7.03-16.5 12.6-20.9 2.7-1.72-5.07-6.72-15.42-7.19-14.34 1.77-1.33 2.89-2.61 4.02-2.51 1.53.16 4.9 17.88 11.9 16.52 4.78-2.37 13.9-8.5 14.5-7.81a18.78 18.55 0 0 1 4 8.21c3.78 10.9 9.4 22.41 5.5 34.07-5.06 20.27-23 33.34-37.22 47.31m-46.64 19.02c2.93.74 15.77-3.67 21.01 3.18.97 4.94-14.73 52.12-36.53 69.64 4.15-4.49 11.54-13.95 15.17-21.74 6.24-12.31 12.34-24.77 16.9-37.74 4.85-11.2-9.53-11.83-16.96-10.22-19.2 2-39.42 2.94-56.85 11.85 15.6-11.93 39.06-12.89 57.28-14.97m137.94-10.8c.48-3.82-3.92-5.1-5.73-7.3-6.5-4.86-12.7-10.3-20.02-13.9-5.37-2.66-11.54-2.35-17.34-2.19-15.02 1.28-28.4 8.85-41.27 16.03-2.25 1.02-5.62 3.63-7.22 3.56 12.67-7.25 25.17-15 38.98-19.92 9.5-2.95 20.47-4.75 29.6-.95 1.44.14 2.74.55 4.53 1.12q10.55 7.15 20.33 15.35c4.37 3.22 1.03 5.81-1.82 8.22m.37 26.69c.34-1.96-1.34-3.39-2.72-4.49-2.93-2.65-5.72-5.46-8.56-8.2-1.16-.95-.9-2.67.24-3.54l3.93-3.57c-.77.94-1.5 2.45-.34 3.4 1.39 1.57 3.02 2.88 4.5 4.35 2.13 2 4.34 3.91 6.26 6.11 1.05 1.6-.04 3.53-1.49 4.43zm-91.07 97.69q2.42-5.6 5-11.14c.3-.71.74-1.57 1.6-1.73.46-.08 1.25.04 1.41.4q-2.43 5.6-5.16 11.06c-.47.67-1.32.96-2 1.39q-.41.06-.85 0M573.86 62.68c-.41-2.2.45-2.97 3.18-3.3q5.22-.65 10.42-1.37.47-.1 1.1-.16c.22 2.16-.3 2.73-2.54 3s-4.5.71-6.75 1.06"/><path fill="#f05c7a" d="M771.75 86.31c-3.68-1.83-7.43-3.83-11.62-4.15-8.17-1.27-16.57.28-24.35 2.83-13.33 4.9-25.34 12.5-37.66 19.43-3.55 2.73-7.68 4.81-11.36 7.44-1.03.55-2.14 1.6-3.24 2.6-1.1 1.01-1.7 1.93-2.1 2.36-2.62-2.84 1.32-4.61 3.38-6.18 4.59-3.43 9.04-7.01 13.56-10.48 12.6-6.93 25-14.56 38.86-18.76 5.93-1.83 12.14-2 18.29-1.83 5.63-.27 10.77 2.36 15.37 5.26q.48.71.85 1.5m-121.16 32.9c.95.1-2 .28-2.19.3-4.46.55-8.94 1.02-13.41 1.65a483.94 478.15 0 0 0-15.94 2.65 61.3 60.56 0 0 0-17.83 5.92c-2.47 1.28-4.74 2.9-7.14 4.42-3.22 2.61-6.56 5-9.6 7.7a28.69 28.34 0 0 0-7.15 10.45q-.21 0-.27-.12c2.27-8.43 7.06-15.13 14.2-20.31a57.78 57.1 0 0 1 23.07-9.83 313.48 309.72 0 0 1 14.75-2.49c2.98-.45 5.99-.7 9.06-1.04M694.73 4.86c-2.68 2.18-5.72 3.91-8.56 5.87-5.06 3.4-10.3 6.65-14.68 10.9a27.86 27.53 0 0 0-7.84 10.7c-.56.62.37-1.7.48-2.25a32.81 32.42 0 0 1 11.57-16.19A187.18 184.94 0 0 1 695.4.47c1.58-1.08 3.62-.2 4.22 1.53 0 0-3.38 1.65-4.89 2.84m-66.47 32.93c.56 1.32 2.02 1.85 2.85 2.97-1.61-.73-3.14-1.69-4.83-2.26a30.96 30.59 0 0 0-10.77-1.81c-4-.2-8.03.16-12.04.3-3.98.2-7.98.4-11.94.98-1.76.06-1.08 2.53-2.07 2.85-2.2.72-1.9-2.4-1.53-3.77.79-1.73 2.98-1.45 4.54-1.63 7.64-.7 15.32-.75 22.97-1.02a24.76 24.47 0 0 1 12.8 3.39m97.55-27.16c-4.62 1.97-8.65 5.01-13.13 7.21a9 9 0 0 1-2.86 1.02c-1.39.25-2.27-.04-2.73-1.36l-.41-1.1c5.16-1.74 10.23-4.8 14.92-7.32 1.63-.86 3.61-.5 4.23 1.53M588.57 57.87q-.62.12-1.11.14c-3.47.45-6.93.98-10.42 1.37-2.73.33-3.53 1.12-3.18 3.32-.62.1-1.28.41-1.9.7-.25-1.1-.58-2.74-.58-3.82 0-1.2.91-2.04 2.17-2.2 2.23-.3 4.46-.5 6.69-.83 4.56-.7 6.54-1.27 7.84-1.29m84.4 72.98c.09-1.08.09-2.18.35-3.22a7.43 7.34 0 0 1 3.6-4 4.95 4.9 0 0 1 2.68-.4c.9.1.54 1.66.93 2.44a6.2 6.12 0 0 0-3.9 2.38 3.3 3.26 0 0 1-.79.82c-1.17.26-2.06 1.12-2.85 1.98m-2.9-8.26a14.65 14.48 0 0 0-4.8-1.37c.58-.45 1.76-1.32 2.2-1.87"/></svg>