<?xml version="1.0" encoding="utf-8"?>
<svg xmlns="http://www.w3.org/2000/svg">
  <defs>
    <symbol id="sunIcon" viewBox="0 0 24 24">
      <path fill="currentColor" fill-rule="evenodd" clip-rule="evenodd" d="M13 3a1 1 0 1 0-2 0v1a1 1 0 1 0 2 0zM5.707 4.293a1 1 0 0 0-1.414 1.414l1 1a1 1 0 0 0 1.414-1.414zm14 0a1 1 0 0 0-1.414 0l-1 1a1 1 0 0 0 1.414 1.414l1-1a1 1 0 0 0 0-1.414M12 7a5 5 0 1 0 0 10 5 5 0 0 0 0-10m-9 4a1 1 0 1 0 0 2h1a1 1 0 1 0 0-2zm17 0a1 1 0 1 0 0 2h1a1 1 0 1 0 0-2zM6.707 18.707a1 1 0 1 0-1.414-1.414l-1 1a1 1 0 1 0 1.414 1.414zm12-1.414a1 1 0 0 0-1.414 1.414l1 1a1 1 0 0 0 1.414-1.414zM13 20a1 1 0 1 0-2 0v1a1 1 0 1 0 2 0z"/>
    </symbol>
    <symbol id="moonIcon" viewBox="0 0 24 24">
      <path fill="currentColor" stroke="currentColor" stroke-linecap="round" stroke-linejoin="round" stroke-width="2" d="M9.353 3C5.849 4.408 3 7.463 3 11.47A9.53 9.53 0 0 0 12.53 21c4.007 0 7.062-2.849 8.47-6.353C8.17 17.065 8.14 8.14 9.353 3"/>
    </symbol>
    <symbol id="menuIcon" viewBox="0 0 24 24">
      <path fill="none" stroke="currentColor" stroke-linecap="round" stroke-linejoin="round" stroke-width="2" d="M6 8h12M6 12h12M6 16h12"/>
    </symbol>
    <symbol id="closeIcon" viewBox="0 0 24 24">
      <path fill="none" stroke="currentColor" stroke-linecap="round" stroke-linejoin="round" stroke-width="2" d="M12 12 7 7m5 5 5 5m-5-5 5-5m-5 5-5 5"/>
    </symbol>
    <symbol id="arrowUp" viewBox="0 0 24 24">
      <path fill="none" stroke="currentColor" stroke-linecap="round" stroke-linejoin="round" stroke-width="2" d="m12 5 6 6m-6-6-6 6m6-6v14"/>
    </symbol>
    <symbol id="facebookIcon" viewBox="0 0 24 24">
      <path fill="currentColor" d="M24 12.073c0-6.627-5.373-12-12-12s-12 5.373-12 12c0 5.99 4.388 10.954 10.125 11.854v-8.385H7.078v-3.47h3.047V9.43c0-3.007 1.792-4.669 4.533-4.669 1.312 0 2.686.235 2.686.235v2.953H15.83c-1.491 0-1.956.925-1.956 1.874v2.25h3.328l-.532 3.47h-2.796v8.385C19.612 23.027 24 18.062 24 12.073"/>
    </symbol>
    <symbol id="xIcon" viewBox="0 0 1227 1227">
      <path fill="currentColor" d="M714.163 519.284 1160.89 0h-105.86L667.137 450.887 357.328 0H0l468.492 681.821L0 1226.37h105.866l409.625-476.152 327.181 476.152H1200L714.137 519.284zM569.165 687.828l-47.468-67.894-377.686-540.24h162.604l304.797 435.991 47.468 67.894 396.2 566.721H892.476L569.165 687.854z"/>
    </symbol>
  </defs>
</svg>